<svg xmlns="http://www.w3.org/2000/svg" width="91" height="96" viewBox="0 0 91 96" fill="none"><g id="Group"><path id="Vector" d="M53.5254 65.8006L54.6323 65.802C58.7015 65.802 62.0119 62.4916 62.0119 58.4223V39.3588C62.0119 35.2897 58.7015 31.9792 54.6323 31.9792H35.5687C31.4996 31.9792 28.189 35.2897 28.189 39.3588V58.4224C28.189 62.4916 31.4994 65.8022 35.5704 65.8022L36.7562 65.8008C38.7873 65.7973 38.8107 64.0368 38.8107 63.962C38.8107 62.9384 37.9748 62.1166 36.9474 62.1239C36.8138 62.1247 35.5669 62.1258 35.5686 62.1258C33.5266 62.1258 31.8653 60.4645 31.8653 58.4224V39.3588C31.8653 37.3169 33.5265 35.6557 35.5686 35.6557H54.6322C56.6741 35.6557 58.3353 37.3169 58.3353 39.3588V58.4224C58.3353 60.4644 56.6741 62.1258 54.634 62.1258C54.6338 62.1258 53.5588 62.1247 53.3671 62.1239C52.2612 62.1028 51.3625 63.089 51.5002 64.1899C51.5338 64.4581 51.7892 65.7973 53.5254 65.8006Z" fill="#3B8EB6"/><path id="Vector_2" d="M53.2563 43.1939C52.5385 42.4761 51.3747 42.4761 50.6565 43.1939L43.1628 50.6876L39.8905 47.4152C39.1727 46.6974 38.0087 46.6974 37.2909 47.4152C36.5731 48.133 36.5729 49.297 37.2909 50.0148L41.8631 54.5871C42.5708 55.2948 43.755 55.295 44.4628 54.5871L53.2563 45.7935C53.9742 45.0757 53.9743 43.9117 53.2563 43.1939Z" fill="#3B8EB6"/><path id="Vector_3" d="M86.1066 48.54C85.4743 47.7611 84.2875 47.6398 83.5109 48.2773L78.2625 52.201C77.4495 52.8089 77.2831 53.961 77.891 54.774C78.4989 55.5871 79.6509 55.7534 80.464 55.1455L82.4427 53.6663C81.982 56.6869 81.1539 59.6189 79.9711 62.4277H69.5099C67.3364 62.4277 65.568 64.1961 65.568 66.3696V74.5314C65.568 76.0339 66.4136 77.342 67.6537 78.0069C64.4303 80.3689 60.8438 82.2066 57.0504 83.4273V82.9549C57.0504 80.7814 55.282 79.013 53.1085 79.013H37.0928C34.9193 79.013 33.1509 80.7814 33.1509 82.9549V83.0338C29.7711 81.8236 26.564 80.1176 23.6621 77.9871C24.8818 77.3161 25.7107 76.019 25.7107 74.5314V66.3696C25.7107 64.1961 23.9423 62.4277 21.7688 62.4277H11.38C10.1425 59.2032 10.0276 59.0735 8.90056 54.6599C8.68291 53.6681 7.70203 53.0407 6.71104 53.2582C5.71931 53.4759 5.09192 54.456 5.30938 55.4477C6.27979 59.4167 6.49412 59.7338 7.4217 62.4277H5.75295C3.57942 62.4277 1.81104 64.1961 1.81104 66.3696V74.5314C1.81104 76.7049 3.57942 78.4733 5.75295 78.4733H18.4357C22.689 82.2781 27.7379 85.1749 33.1507 86.9168V91.1167C33.1507 93.2902 34.9191 95.0586 37.0927 95.0586H53.1083C55.2818 95.0586 57.0502 93.2902 57.0502 91.1167V87.2702C62.9013 85.5735 68.3447 82.554 72.9101 78.4735H85.5252C87.6987 78.4735 89.4671 76.7051 89.4671 74.5315V66.3698C89.4671 64.1963 87.6987 62.4279 85.5252 62.4279H83.9307C84.9193 59.8071 85.6309 57.0953 86.0612 54.3163L87.2035 55.7229C87.8346 56.5001 89.0114 56.6229 89.7892 55.9911C90.5774 55.3512 90.6973 54.1935 90.0574 53.4054L86.1066 48.54ZM5.48769 74.5315V66.3698C5.48769 66.2235 5.60681 66.1043 5.75313 66.1043H21.7688C21.9151 66.1043 22.0342 66.2235 22.0342 66.3698V74.5315C22.0342 74.6779 21.9153 74.797 21.7688 74.797H5.75313C5.60681 74.797 5.48769 74.6779 5.48769 74.5315ZM53.3737 91.1168C53.3737 91.2632 53.2548 91.3823 53.1083 91.3823H37.0928C36.9465 91.3823 36.8274 91.2632 36.8274 91.1168V82.9551C36.8274 82.8088 36.9465 82.6896 37.0928 82.6896H53.1085C53.2548 82.6896 53.3739 82.8086 53.3739 82.9551V91.1168H53.3737ZM85.7908 66.3698V74.5315C85.7908 74.6779 85.6717 74.797 85.5254 74.797H69.5097C69.3634 74.797 69.2443 74.6781 69.2443 74.5315V66.3698C69.2443 66.2235 69.3632 66.1043 69.5097 66.1043H81.1528C81.159 66.1043 81.1653 66.1053 81.1715 66.1053C81.1761 66.1053 81.1807 66.1043 81.1855 66.1043H85.5254C85.6717 66.1043 85.7908 66.2235 85.7908 66.3698Z" fill="#3B8EB6"/><path id="Vector_4" d="M5.75319 17.5265C3.57966 17.5265 1.81128 19.2948 1.81128 21.4684V29.6301C1.81128 31.8037 3.57966 33.572 5.75319 33.572H7.42157C6.43223 36.1954 5.72047 38.9083 5.28977 41.6869L4.14749 40.2801C3.5076 39.4917 2.34988 39.372 1.56183 40.0119C0.773592 40.6518 0.653739 41.8095 1.29363 42.5976L5.24473 47.463C5.85815 48.2185 6.99234 48.3597 7.7723 47.7766L13.0887 43.802C13.9017 43.1941 14.0681 42.0421 13.4602 41.229C12.8525 40.416 11.7006 40.2498 10.8872 40.8575L8.9087 42.3367C9.36955 39.3169 10.1979 36.3838 11.3811 33.572H21.7688C23.9423 33.572 25.7107 31.8037 25.7107 29.6301V21.4684C25.7107 19.9836 24.885 18.6891 23.6694 18.0171C26.5708 15.8884 29.7754 14.1827 33.151 12.9711V13.0448C33.151 15.2184 34.9194 16.9868 37.0929 16.9868H53.1085C55.282 16.9868 57.0504 15.2184 57.0504 13.0448V12.5787C60.8456 13.7967 64.4322 15.6322 67.6537 17.9926C66.4138 18.6575 65.5681 19.9656 65.5681 21.4682V29.6299C65.5681 31.8035 67.3365 33.5719 69.51 33.5719H79.9703C81.0221 36.0654 81.7979 38.6682 82.2797 41.325C82.4583 42.3108 83.4306 42.9844 84.4164 42.8057C85.4153 42.6246 86.0784 41.6678 85.8971 40.6689C85.4585 38.2504 84.7955 35.8741 83.9254 33.5719H85.5256C87.6991 33.5719 89.4675 31.8035 89.4675 29.6299V21.4682C89.4675 19.2947 87.6991 17.5263 85.5256 17.5263H72.9098C68.348 13.4465 62.905 10.4298 57.0504 8.73693V4.88307C57.0502 2.70954 55.2819 0.941162 53.1083 0.941162H37.0929C34.9194 0.941162 33.151 2.70954 33.151 4.88307V9.08693C27.7453 10.8311 22.6995 13.7266 18.4451 17.5265H5.75319ZM85.7909 21.4684V29.6301C85.7909 29.7765 85.6717 29.8956 85.5254 29.8956H69.5098C69.3635 29.8956 69.2444 29.7765 69.2444 29.6301V21.4684C69.2444 21.322 69.3633 21.2029 69.5098 21.2029H85.5254C85.6717 21.2029 85.7909 21.322 85.7909 21.4684ZM36.8273 4.88307C36.8273 4.73675 36.9464 4.61763 37.0927 4.61763H53.1083C53.2547 4.61763 53.3738 4.73675 53.3738 4.88307V13.0448C53.3738 13.1912 53.2548 13.3103 53.1083 13.3103H37.0929C36.9466 13.3103 36.8274 13.1913 36.8274 13.0448L36.8273 4.88307ZM22.0343 29.6301C22.0343 29.7765 21.9151 29.8956 21.7688 29.8956H5.75319C5.60686 29.8956 5.48775 29.7765 5.48775 29.6301V21.4684C5.48775 21.322 5.60668 21.2029 5.75319 21.2029H21.7688C21.9151 21.2029 22.0343 21.3219 22.0343 21.4684V29.6301Z" fill="#3B8EB6"/><path id="Vector_5" d="M46.6294 62.943C46.1917 62.2924 45.3662 61.9834 44.6103 62.1937C43.8384 62.4084 43.2844 63.1162 43.2629 63.9182C43.2191 65.5564 45.294 66.4228 46.4274 65.2336C47.014 64.6185 47.1024 63.6522 46.6294 62.943Z" fill="#3B8EB6"/></g></svg>