<svg xmlns="http://www.w3.org/2000/svg" width="96" height="92" viewBox="0 0 96 92" fill="none"><g id="XMLID_806_"><g id="XMLID_386_"><path id="XMLID_389_" d="M94.8776 50.3474C94.0326 41.8476 90.2353 33.8345 84.1848 27.7838C79.0141 22.6133 72.6854 19.2907 66.0261 17.8133V13.1426C68.746 12.4659 70.7677 10.0039 70.7677 7.07761C70.7677 3.63123 67.964 0.827515 64.5176 0.827515H51.2821C47.8357 0.827515 45.032 3.63123 45.032 7.07761C45.032 10.0038 47.0537 12.4657 49.7734 13.1426V17.8263C43.1345 19.31 36.8267 22.628 31.6707 27.784C30.5424 28.9123 29.502 30.096 28.5496 31.3262C28.5034 31.3227 28.4573 31.3192 28.4102 31.3192H15.3106C14.2955 31.3192 13.4723 32.1422 13.4723 33.1574C13.4723 34.1727 14.2955 34.9957 15.3106 34.9957H26.0482C24.7004 37.2522 23.6136 39.6219 22.7864 42.0612H2.77967C1.76458 42.0612 0.941406 42.8842 0.941406 43.8995C0.941406 44.9148 1.76458 45.7378 2.77967 45.7378H21.7476C21.2178 48.0634 20.9138 50.4301 20.8353 52.8035H12.7063C11.6912 52.8035 10.868 53.6265 10.868 54.6418C10.868 55.657 11.6912 56.48 12.7063 56.48H20.8939C21.0491 58.8595 21.4316 61.2264 22.0417 63.5458H10.1327C9.11764 63.5458 8.29446 64.3688 8.29446 65.384C8.29446 66.3993 9.11764 67.2223 10.1327 67.2223H23.2149C25.0183 71.9928 27.8365 76.464 31.6707 80.2982C37.7271 86.3546 45.7485 90.1528 54.2571 90.9934C55.4715 91.1133 56.6868 91.1727 57.9004 91.1727C65.0737 91.1727 72.1557 89.0967 78.165 85.1834C79.0158 84.6294 79.2564 83.4906 78.7024 82.6398C78.1483 81.7891 77.0095 81.5484 76.1588 82.1025C63.0047 90.6682 45.3881 88.8162 34.2704 77.6986C21.2257 64.6539 21.2257 43.4287 34.2704 30.3839C47.3149 17.3394 68.5401 17.3394 81.5849 30.3839C92.6879 41.487 94.55 59.0885 86.0126 72.2362C85.4596 73.0876 85.7017 74.2263 86.553 74.779C87.4049 75.332 88.5431 75.0899 89.0959 74.2384C93.6574 67.2135 95.7107 58.729 94.8776 50.3474ZM48.7085 7.0778C48.7085 5.65866 49.8629 4.50423 51.2821 4.50423H64.5176C65.9367 4.50423 67.0911 5.65866 67.0911 7.0778C67.0911 8.49694 65.9367 9.65136 64.5176 9.65136H64.1878H51.6117H51.2821C49.8629 9.65136 48.7085 8.49675 48.7085 7.0778ZM53.4499 17.1943V13.3279H62.3495V17.1877C59.3943 16.8362 56.4046 16.8384 53.4499 17.1943Z" fill="#3B8EB6"/><path id="XMLID_391_" d="M82.8856 77.1593C82.4003 77.1593 81.9279 77.356 81.5862 77.6979C81.2424 78.0398 81.0474 78.5141 81.0474 78.9975C81.0474 79.481 81.2424 79.9553 81.5862 80.2972C81.9279 80.6409 82.4005 80.8358 82.8856 80.8358C83.3691 80.8358 83.8415 80.6409 84.1852 80.2972C84.5271 79.9553 84.7238 79.481 84.7238 78.9975C84.7238 78.5141 84.5273 78.0398 84.1852 77.6979C83.8415 77.356 83.3689 77.1593 82.8856 77.1593Z" fill="#3B8EB6"/><path id="XMLID_394_" d="M57.9279 25.524C42.2038 25.524 29.4111 38.3165 29.4111 54.0409C29.4111 69.7652 42.2038 82.5577 57.9279 82.5577C73.6521 82.5577 86.4447 69.7652 86.4447 54.0409C86.4447 38.3165 73.6521 25.524 57.9279 25.524ZM57.9279 78.8811C44.2309 78.8811 33.0877 67.7378 33.0877 54.0409C33.0877 40.3439 44.2309 29.2006 57.9279 29.2006C71.625 29.2006 82.7682 40.3439 82.7682 54.0409C82.7682 67.7378 71.625 78.8811 57.9279 78.8811Z" fill="#3B8EB6"/><path id="XMLID_397_" d="M69.5559 39.813L60.4509 48.9178C59.6895 48.5413 58.8331 48.3286 57.9277 48.3286C57.0222 48.3286 56.1659 48.5413 55.4045 48.9178L51.3296 44.8429C50.6116 44.1251 49.448 44.1251 48.7298 44.8429C48.0119 45.5607 48.0119 46.7247 48.7298 47.4426L52.8047 51.5174C52.428 52.2789 52.2155 53.1353 52.2155 54.0407C52.2155 57.1903 54.7779 59.7529 57.9277 59.7529C61.0776 59.7529 63.64 57.1903 63.64 54.0407C63.64 53.1353 63.4273 52.2789 63.0508 51.5174L71.8884 42.6798L72.1555 42.4127C72.8734 41.6949 72.8734 40.5309 72.1555 39.813C71.4377 39.0952 70.2741 39.0952 69.5559 39.813ZM57.9277 56.0765C56.8053 56.0765 55.892 55.1633 55.892 54.0408C55.892 52.9184 56.8053 52.0051 57.9277 52.0051C59.0502 52.0051 59.9634 52.9184 59.9634 54.0408C59.9634 55.1633 59.0502 56.0765 57.9277 56.0765Z" fill="#3B8EB6"/><path id="XMLID_398_" d="M77.5824 52.225H75.8793C74.8642 52.225 74.041 53.048 74.041 54.0632C74.041 55.0785 74.8642 55.9014 75.8793 55.9014H77.5824C78.5975 55.9014 79.4206 55.0785 79.4206 54.0632C79.4206 53.048 78.5975 52.225 77.5824 52.225Z" fill="#3B8EB6"/><path id="XMLID_399_" d="M39.9762 52.1802H38.2733C37.2582 52.1802 36.4351 53.0032 36.4351 54.0184C36.4351 55.0337 37.2582 55.8566 38.2733 55.8566H39.9762C40.9913 55.8566 41.8145 55.0337 41.8145 54.0184C41.8145 53.0032 40.9913 52.1802 39.9762 52.1802Z" fill="#3B8EB6"/><path id="XMLID_400_" d="M57.9501 37.9275C58.9651 37.9275 59.7883 37.1045 59.7883 36.0893V34.3863C59.7883 33.3711 58.9651 32.5481 57.9501 32.5481C56.935 32.5481 56.1118 33.3711 56.1118 34.3863V36.0893C56.1118 37.1045 56.935 37.9275 57.9501 37.9275Z" fill="#3B8EB6"/><path id="XMLID_424_" d="M57.9051 70.1542C56.8901 70.1542 56.0669 70.9772 56.0669 71.9924V73.6954C56.0669 74.7106 56.8901 75.5336 57.9051 75.5336C58.9202 75.5336 59.7434 74.7106 59.7434 73.6954V71.9924C59.7434 70.9772 58.9202 70.1542 57.9051 70.1542Z" fill="#3B8EB6"/><path id="XMLID_425_" d="M2.77964 63.545C2.29619 63.545 1.82192 63.7417 1.48001 64.0836C1.1381 64.4256 0.941406 64.8998 0.941406 65.3833C0.941406 65.8686 1.13791 66.341 1.48001 66.6829C1.8221 67.0248 2.29619 67.2215 2.77964 67.2215C3.2631 67.2215 3.73736 67.0248 4.07909 66.6829C4.421 66.341 4.61788 65.8667 4.61788 65.3833C4.61788 64.8998 4.42119 64.4256 4.07909 64.0836C3.73736 63.7417 3.2631 63.545 2.77964 63.545Z" fill="#3B8EB6"/></g></g></svg>