<svg xmlns="http://www.w3.org/2000/svg" width="96" height="96" viewBox="0 0 96 96" fill="none"><g id="Group"><path id="Vector" d="M37.7062 2.77952C37.7062 3.79485 36.8834 4.61775 35.868 4.61775C34.8527 4.61775 34.0298 3.79485 34.0298 2.77952C34.0298 1.76418 34.8527 0.941284 35.868 0.941284C36.8834 0.941284 37.7062 1.76418 37.7062 2.77952Z" fill="#3B8EB6"/><path id="Vector_2" d="M35.9597 70.886C42.7411 70.886 49.2568 68.9602 54.905 65.3046L84.1214 94.5202C84.8388 95.2376 86.0027 95.2383 86.7208 94.5202L94.5204 86.7207C95.2384 86.0026 95.2384 84.8394 94.5204 84.1213L65.3047 54.9049C68.9603 49.2574 70.8862 42.741 70.8862 35.9596C70.8862 32.8799 70.4855 29.8324 69.6956 26.8841L76.3463 20.2334C77.4406 20.8811 78.7159 21.2538 80.0773 21.2538C84.1315 21.2538 87.4302 17.9557 87.4302 13.9008C87.4302 9.84666 84.1315 6.5479 80.0773 6.5479C76.0232 6.5479 72.7244 9.84666 72.7244 13.9008C72.7244 15.263 73.0978 16.539 73.7462 17.634L68.3952 22.985C64.2692 12.665 55.3588 4.75418 44.5305 2.00689C43.546 1.757 42.5465 2.35299 42.2966 3.33674C42.0474 4.32119 42.6427 5.32145 43.6265 5.57062C53.833 8.15994 62.1373 15.8769 65.538 25.8422L56.237 35.1432C55.142 34.4955 53.866 34.1214 52.5038 34.1214C51.169 34.1214 49.8887 34.4761 48.7685 35.1396L42.2916 28.6627C42.9393 27.5677 43.3127 26.2924 43.3127 24.9302C43.3127 20.8761 40.0139 17.5773 35.9597 17.5773C31.9056 17.5773 28.6068 20.8761 28.6068 24.9302C28.6068 26.2924 28.9802 27.5684 29.6286 28.6634L23.1488 35.1432C22.0538 34.4955 20.7778 34.1214 19.4156 34.1214C15.3615 34.1214 12.0627 37.4201 12.0627 41.4743C12.0627 45.5292 15.3615 48.8272 19.4156 48.8272C23.4698 48.8272 26.7686 45.5292 26.7686 41.4743C26.7686 40.1136 26.3952 38.8383 25.7482 37.744L32.2287 31.2628C33.3237 31.9105 34.5983 32.2832 35.9597 32.2832C37.3212 32.2832 38.5972 31.9098 39.6915 31.2621L46.1684 37.739C45.5056 38.8591 45.1509 40.1394 45.1509 41.4743C45.1509 45.5292 48.4497 48.8272 52.5038 48.8272C56.558 48.8272 59.8568 45.5292 59.8568 41.4743C59.8568 40.1136 59.4834 38.8383 58.8364 37.744L66.6317 29.948C67.0151 31.9198 67.2097 33.9318 67.2097 35.9596C67.2097 53.2182 53.224 67.2096 35.9597 67.2096C18.6775 67.2096 4.61787 53.1909 4.61787 35.9596C4.61787 21.6774 14.2837 9.19826 28.1236 5.61298C29.1066 5.35807 29.6968 4.35494 29.4419 3.37192C29.187 2.38961 28.1839 1.79865 27.2016 2.05356C12.2638 5.92319 0.941406 19.5541 0.941406 35.9596C0.941406 55.218 16.6504 70.886 35.9597 70.886ZM80.0773 10.2244C82.1044 10.2244 83.7538 11.8737 83.7538 13.9008C83.7538 15.9279 82.1044 17.5773 80.0773 17.5773C78.0502 17.5773 76.4009 15.9279 76.4009 13.9008C76.4009 11.8737 78.0502 10.2244 80.0773 10.2244ZM19.4156 45.1508C17.3886 45.1508 15.7392 43.5014 15.7392 41.4743C15.7392 39.4472 17.3886 37.7978 19.4156 37.7978C21.4427 37.7978 23.0921 39.4472 23.0921 41.4743C23.0921 43.5014 21.4427 45.1508 19.4156 45.1508ZM32.2833 24.9302C32.2833 22.9031 33.9327 21.2538 35.9597 21.2538C37.9868 21.2538 39.6362 22.9031 39.6362 24.9302C39.6362 26.9573 37.9868 28.6067 35.9597 28.6067C33.9327 28.6067 32.2833 26.9573 32.2833 24.9302ZM52.5038 45.1508C50.4767 45.1508 48.8274 43.5014 48.8274 41.4743C48.8274 39.4444 50.4732 37.7978 52.5038 37.7978C54.5309 37.7978 56.1803 39.4472 56.1803 41.4743C56.1803 43.5014 54.5309 45.1508 52.5038 45.1508ZM85.4211 90.6212L64.9916 70.191L70.1911 64.9915L90.6206 85.421L85.4211 90.6212ZM63.1196 57.9193L67.5917 62.3914L62.3915 67.5916L57.9194 63.1195C59.8323 61.5721 61.5715 59.8322 63.1196 57.9193Z" fill="#3B8EB6"/></g></svg>