<svg xmlns="http://www.w3.org/2000/svg" width="96" height="92" viewBox="0 0 96 92" fill="none"><g id="Settings"><g id="Group"><g id="Group_2"><path id="Vector" d="M93.6025 62.576H89.5736C89.2378 61.5036 88.808 60.4655 88.2885 59.472L91.137 56.6238C91.4104 56.3508 91.5637 55.98 91.5637 55.5936C91.5637 55.2072 91.4102 54.837 91.137 54.5635L85.1635 48.5903C84.5948 48.0216 83.6725 48.0216 83.1036 48.5903L80.2554 51.4387C79.2622 50.9194 78.2238 50.4896 77.1514 50.1538V46.1243C77.1514 45.3197 76.4994 44.6677 75.6948 44.6677H67.2477C66.4431 44.6677 65.7911 45.3197 65.7911 46.1243V50.1538C64.7183 50.4898 63.6801 50.9196 62.687 51.4389L59.8389 48.5905C59.5659 48.3172 59.1953 48.1639 58.8087 48.1639C58.4222 48.1639 58.0521 48.3174 57.7788 48.5903L51.8054 54.5635C51.5321 54.8368 51.3788 55.2071 51.3788 55.5936C51.3788 55.9799 51.5323 56.3504 51.8052 56.6238L54.6534 59.4718C54.1341 60.465 53.7043 61.5032 53.3685 62.5762H49.3394C48.5348 62.5762 47.8828 63.2282 47.8828 64.0328V72.4799C47.8828 73.2845 48.5348 73.9365 49.3394 73.9365H53.3683C53.7041 75.0087 54.1337 76.047 54.6534 77.0407L51.8054 79.8885C51.2365 80.4576 51.2365 81.3797 51.8054 81.9486L57.7788 87.9221C58.0521 88.1955 58.4223 88.3488 58.8089 88.3488C59.1955 88.3488 59.5657 88.1953 59.8391 87.9221L62.687 85.0738C63.6808 85.5936 64.7188 86.0234 65.7915 86.3591V90.3881C65.7915 91.1927 66.4435 91.8448 67.2481 91.8448H75.6951C76.4997 91.8448 77.1517 91.1927 77.1517 90.3881V86.3591C78.2238 86.0232 79.262 85.5935 80.2558 85.0736L83.104 87.9221C83.3769 88.1955 83.7475 88.3488 84.1341 88.3488C84.5207 88.3488 84.8907 88.1953 85.1642 87.9223L91.1378 81.9488C91.4108 81.6754 91.5642 81.3052 91.5642 80.9186C91.5642 80.5324 91.4108 80.1618 91.1376 79.8885L88.2891 77.0402C88.8087 76.0464 89.2385 75.008 89.5742 73.9363H93.603C94.4076 73.9363 95.0596 73.2843 95.0596 72.4797V64.0326C95.0591 63.228 94.4071 62.576 93.6025 62.576ZM92.1459 71.0231H88.4698C87.8003 71.0231 87.217 71.4795 87.0562 72.1291C86.6703 73.6856 86.0562 75.1686 85.2308 76.5376C84.885 77.1111 84.9749 77.8464 85.4483 78.3199L88.0473 80.9186L84.1339 84.8319L81.5352 82.2326C81.0617 81.7591 80.3262 81.6692 79.7527 82.0153C78.3839 82.8411 76.9006 83.4554 75.3446 83.8407C74.6948 84.0017 74.2383 84.5852 74.2383 85.2547V88.9311H68.7045V85.2547C68.7045 84.5852 68.2479 84.0017 67.5983 83.8407C66.0411 83.4552 64.5582 82.8409 63.1905 82.0155C62.6166 81.6692 61.8813 81.7589 61.4076 82.2326L58.8089 84.8319L54.8957 80.9186L57.4946 78.3199C57.9681 77.8464 58.0576 77.1109 57.7117 76.5374C56.8867 75.1696 56.2725 73.6863 55.8865 72.1291C55.7255 71.4793 55.1422 71.0231 54.4729 71.0231H50.7964V65.4892H54.4725C55.142 65.4892 55.7253 65.0328 55.8861 64.3834C56.2725 62.8247 56.8867 61.3416 57.7111 59.9751C58.0573 59.4015 57.9677 58.6661 57.4942 58.1924L54.8953 55.5936L58.8085 51.6806L61.4073 54.2797C61.8808 54.7532 62.6163 54.8433 63.19 54.4968C64.5565 53.6723 66.0398 53.058 67.5984 52.6714C68.2481 52.5102 68.7041 51.9269 68.7041 51.2578V47.5813H74.2381V51.2578C74.2381 51.9271 74.6944 52.5104 75.3438 52.6714C76.9021 53.0582 78.3854 53.6721 79.7527 54.4968C80.326 54.8427 81.0613 54.7523 81.535 54.2795L84.1337 51.6806L88.047 55.5936L85.4483 58.1922C84.9747 58.6659 84.885 59.4012 85.231 59.9747C86.0558 61.3422 86.6699 62.8256 87.0562 64.3832C87.2172 65.0328 87.8005 65.489 88.4698 65.489H92.1459V71.0231Z" fill="#3B8EB6"/></g></g><g id="Group_3"><g id="Group_4"><path id="Vector_2" d="M71.2697 55.6862C64.3388 55.6862 58.7002 61.3251 58.7002 68.2566C58.7002 75.1876 64.3386 80.8266 71.2697 80.8266C78.2007 80.8266 83.8399 75.1878 83.8399 68.2566C83.8399 61.3253 78.2009 55.6862 71.2697 55.6862ZM71.2697 77.9132C65.9452 77.9132 61.6134 73.5812 61.6134 68.2564C61.6134 62.9314 65.9452 58.5992 71.2697 58.5992C76.5945 58.5992 80.9267 62.9314 80.9267 68.2564C80.9267 73.5812 76.5945 77.9132 71.2697 77.9132Z" fill="#3B8EB6"/></g></g><g id="Group_5"><g id="Group_6"><path id="Vector_3" d="M78.9647 31.133H71.2045C70.5429 28.8231 69.6239 26.6031 68.4618 24.508L73.9488 19.022C74.2221 18.749 74.3754 18.3784 74.3754 17.9919C74.3754 17.6056 74.2219 17.2352 73.9489 16.9617L63.6159 6.6288C63.0467 6.06005 62.1245 6.06005 61.5559 6.6288L56.069 12.1154C53.9752 10.9538 51.7548 10.0347 49.4438 9.37274V1.61189C49.4438 0.807296 48.7918 0.155273 47.9872 0.155273H33.3752C32.5706 0.155273 31.9186 0.807296 31.9186 1.61189V9.37274C29.6067 10.0351 27.3861 10.9545 25.2932 12.1159L19.807 6.62935C19.5339 6.35601 19.1635 6.2027 18.7769 6.2027C18.3905 6.2027 18.0201 6.35619 17.7467 6.62935L7.41475 16.9623C6.84582 17.5312 6.84582 18.4532 7.41475 19.0222L12.901 24.5082C11.7394 26.602 10.8201 28.8224 10.1583 31.1332H2.39802C1.59343 31.1332 0.941406 31.7854 0.941406 32.5898V47.202C0.941406 48.0066 1.59343 48.6586 2.39802 48.6586H10.1581C10.8201 50.9689 11.7394 53.1893 12.901 55.2834L7.41475 60.7702C6.84582 61.3391 6.84582 62.2612 7.41475 62.8301L17.7467 73.163C18.0201 73.4363 18.3903 73.5896 18.7769 73.5896C19.1635 73.5896 19.5337 73.4362 19.807 73.163L25.2931 67.6759C27.3879 68.8384 29.6085 69.758 31.9186 70.4198V78.1805C31.9186 78.9851 32.5706 79.6371 33.3752 79.6371H44.8982C45.3756 79.6371 45.8228 79.4031 46.0949 79.0108C46.367 78.6185 46.4296 78.1178 46.2625 77.6707C45.1383 74.6615 44.5682 71.4939 44.5682 68.2566C44.5682 65.1089 45.1074 62.0248 46.1712 59.0895C46.3534 58.586 46.2449 58.0231 45.8885 57.6235C45.532 57.2238 44.9853 57.0518 44.464 57.1762C43.105 57.4999 41.7153 57.6643 40.3333 57.6643C30.5368 57.6643 22.5666 49.6939 22.5666 39.8972C22.5666 30.0999 30.5368 22.1292 40.3333 22.1292C50.1304 22.1292 58.1008 30.0999 58.1008 39.8972C58.1008 40.7169 58.0403 41.5595 57.9214 42.402C57.8466 42.9321 58.0688 43.461 58.4999 43.7786C58.9315 44.0963 59.5017 44.1512 59.9863 43.9226C63.5914 42.2178 67.4556 41.3533 71.471 41.3533C73.8787 41.3533 76.2708 41.6733 78.5807 42.3045C79.0192 42.4246 79.4877 42.3328 79.8486 42.0573C80.2094 41.7817 80.4214 41.3534 80.4214 40.8994V32.59C80.4214 31.7852 79.7693 31.133 78.9647 31.133ZM77.5085 39.0536C75.5274 38.6457 73.5039 38.4396 71.4712 38.4396C67.8524 38.4396 64.344 39.0738 61.0094 40.3271C61.0127 40.1832 61.014 40.0395 61.014 39.8966C61.014 28.493 51.7366 19.2156 40.3333 19.2156C28.9302 19.2156 19.6534 28.4931 19.6534 39.8966C19.6534 51.2999 28.9304 60.577 40.3333 60.577C41.119 60.577 41.9067 60.5316 42.6907 60.4409C42.0028 62.9779 41.6552 65.597 41.6552 68.256C41.6552 71.145 42.0651 73.9843 42.8761 76.7237H34.832V69.3012C34.832 68.6317 34.3756 68.0485 33.726 67.8876C30.9282 67.1941 28.2638 66.0906 25.8072 64.6077C25.2335 64.2613 24.498 64.3512 24.0243 64.8248L18.7771 70.0731L10.5048 61.8003L15.7521 56.5525C16.2256 56.079 16.3151 55.3435 15.9692 54.7702C14.4874 52.3137 13.3842 49.6498 12.6903 46.8514C12.5293 46.2016 11.946 45.7453 11.2767 45.7453H3.85464V34.0465H11.2765C11.9458 34.0465 12.5291 33.59 12.6901 32.9406C13.3844 30.1413 14.4875 27.4771 15.969 25.0216C16.3149 24.4483 16.2252 23.7128 15.7519 23.2391L10.5046 17.9922L18.7769 9.71943L24.0241 14.9672C24.4977 15.4408 25.2329 15.5305 25.807 15.1843C28.2609 13.7031 30.9254 12.5998 33.726 11.9047C34.3758 11.7435 34.8318 11.1602 34.8318 10.4911V3.06888H46.5304V10.4913C46.5304 11.1606 46.9866 11.7439 47.6363 11.9049C50.4357 12.5992 53.1 13.7025 55.5554 15.1838C56.1289 15.5297 56.8644 15.4395 57.3377 14.9667L62.5855 9.71906L70.8587 17.992L65.6109 23.2391C65.1374 23.7126 65.0477 24.4481 65.3936 25.0216C66.8758 27.4786 67.9791 30.1431 68.6723 32.9404C68.8333 33.5902 69.4166 34.0465 70.0859 34.0465H77.5083V39.0536H77.5085Z" fill="#3B8EB6"/></g></g><g id="Group_7"><g id="Group_8"><path id="Vector_4" d="M53.5146 32.7373C53.1319 32.0297 52.2481 31.7665 51.5403 32.1492C50.8326 32.5319 50.5694 33.4159 50.9523 34.1235C51.9012 35.8779 52.4028 37.8669 52.4028 39.8753C52.4028 46.5512 46.9716 51.9827 40.2957 51.9827C33.6198 51.9827 28.1883 46.5512 28.1883 39.8753C28.1883 33.1994 33.6198 27.7682 40.2957 27.7682C43.037 27.7682 45.6221 28.6614 47.7714 30.3512C48.4041 30.8483 49.3199 30.7386 49.8168 30.1064C50.3141 29.4739 50.2043 28.558 49.572 28.061C46.9041 25.9637 43.6964 24.8551 40.2955 24.8551C32.013 24.8551 25.2749 31.5932 25.2749 39.8755C25.2749 48.158 32.013 54.8961 40.2955 54.8961C48.5778 54.8961 55.3159 48.158 55.3159 39.8755C55.3159 37.3841 54.6931 34.9159 53.5146 32.7373Z" fill="#3B8EB6"/></g></g><g id="Group_9"><g id="Group_10"><path id="Vector_5" d="M71.2702 61.3104C67.4402 61.3104 64.3242 64.4264 64.3242 68.2564C64.3242 72.0863 67.4402 75.2023 71.2702 75.2023C75.1001 75.2023 78.2161 72.0863 78.2161 68.2564C78.2161 64.4264 75.1001 61.3104 71.2702 61.3104ZM71.2702 72.2889C69.0466 72.2889 67.2375 70.4799 67.2375 68.2562C67.2375 66.0325 69.0465 64.2235 71.2702 64.2235C73.4939 64.2235 75.3029 66.0323 75.3029 68.2562C75.3029 70.4799 73.4937 72.2889 71.2702 72.2889Z" fill="#3B8EB6"/></g></g></g></svg>