<svg xmlns="http://www.w3.org/2000/svg" width="94" height="96" viewBox="0 0 94 96" fill="none"><g id="Support"><path id="Vector" d="M46.8357 12.9007C47.8581 12.9007 48.687 12.0719 48.687 11.0494V2.79245C48.687 1.77002 47.8581 0.941162 46.8357 0.941162C45.8132 0.941162 44.9844 1.77002 44.9844 2.79245V11.0494C44.9846 12.0719 45.8134 12.9007 46.8357 12.9007Z" fill="#3B8EB6"/><path id="Vector_2" d="M92.0882 64.5413L88.8178 61.2801C87.6544 60.1181 86.1038 59.4781 84.4516 59.4781C83.3952 59.4781 82.381 59.7409 81.4823 60.2334L75.3194 54.0779L75.6196 53.7781C78.1198 51.2729 78.1189 47.2022 75.6194 44.7055C74.7262 43.8106 73.6117 43.2139 72.3968 42.9628C72.5641 42.3854 72.6522 41.7806 72.6522 41.1617C72.6522 39.442 71.9841 37.8295 70.775 36.6253C69.8816 35.7305 68.7672 35.1338 67.5523 34.8827C67.7196 34.3053 67.8077 33.7007 67.8077 33.0816C67.8077 31.3617 67.1397 29.7494 65.9284 28.5433C65.0137 27.6297 63.8893 27.0514 62.7086 26.8053C63.3402 24.6275 62.8005 22.1773 61.0873 20.4612C59.6612 19.0411 57.7261 18.4308 55.8612 18.6286L43.6489 16.317C41.7864 15.9637 39.4604 15.7301 37.9922 17.0692C37.8996 17.1538 37.8051 17.251 37.7121 17.3593C35.4356 16.5295 32.7805 17.0237 30.9575 18.8446C29.7481 20.0525 29.0819 21.6643 29.0819 23.383C29.0819 24.0022 29.1696 24.6067 29.3367 25.1843C28.1231 25.4352 27.0101 26.0312 26.1198 26.9231C24.908 28.1299 24.2398 29.7398 24.2386 31.4566C24.238 32.0772 24.3261 32.6838 24.4941 33.2628C23.2799 33.5132 22.1661 34.108 21.2731 34.9999C20.0614 36.2104 19.3941 37.8231 19.3941 39.5409C19.3941 40.8567 19.7869 42.1102 20.5148 43.1691C19.5957 43.4806 18.7538 43.9992 18.0489 44.7034C15.547 47.2022 15.5461 51.2731 18.0505 53.7819L18.3496 54.0797L12.186 60.2321C9.89536 59.1536 7.07312 59.5577 5.18286 61.4455L1.91043 64.7088C0.746461 65.8713 0.105653 67.422 0.105469 69.0751C0.105469 70.7284 0.746461 72.2794 1.91043 73.442L5.99444 77.5211C6.71778 78.2437 7.89003 78.243 8.61245 77.5196C9.33506 76.7963 9.33433 75.624 8.61098 74.9016L4.52698 70.8226C4.06337 70.3595 3.80804 69.7389 3.80804 69.0753C3.80804 68.4119 4.06337 67.7915 4.52587 67.3295L7.79848 64.0661C8.61613 63.2494 9.8676 63.1277 10.818 63.6959C10.8849 63.7965 10.9623 63.892 11.0509 63.9808C11.2095 64.1398 11.3906 64.2617 11.5829 64.3509L30.35 83.0904C30.4391 83.2847 30.5615 83.4676 30.7213 83.6275C30.8768 83.7832 31.0542 83.9036 31.2424 83.9922C31.6393 84.4409 31.8586 85.0141 31.8586 85.6255C31.8586 86.2891 31.6033 86.9095 31.1397 87.3726L27.8704 90.638C26.9044 91.5998 25.333 91.5996 24.37 90.6409L20.286 86.5566C19.563 85.8336 18.3909 85.8336 17.668 86.5566C16.945 87.2795 16.945 88.4516 17.668 89.1746L21.7549 93.2619C22.9579 94.4599 24.5376 95.0586 26.1182 95.0586C27.699 95.0586 29.2807 94.459 30.4851 93.2599L33.7564 89.9924C34.9204 88.8297 35.5614 87.279 35.5614 85.6255C35.5614 84.4455 35.2332 83.3187 34.6231 82.347L41.5599 75.4187C41.5672 75.4112 41.5746 75.4036 41.5821 75.3961C42.3764 74.5749 44.5884 74.7286 46.7275 74.8772C48.2474 74.9829 49.9419 75.1003 51.5974 74.9095L59.1937 82.4968C58.7016 83.3941 58.4389 84.4069 58.4389 85.4617C58.4389 87.1134 59.0799 88.6632 60.2439 89.8259L63.5154 93.0933C64.6786 94.2553 66.2292 94.8954 67.8814 94.8954C69.5334 94.8954 71.084 94.2555 72.2474 93.0933L92.0895 73.2753C93.2534 72.1128 93.8944 70.5621 93.8944 68.9088C93.8942 67.2556 93.2533 65.7049 92.0882 64.5413ZM42.9595 19.9549L50.9902 21.4749L46.1834 26.2799C45.4398 25.9226 44.4207 25.256 43.3027 24.1865C41.7724 22.7226 40.6777 21.0323 40.5781 19.9781C40.5779 19.9775 40.5779 19.977 40.5779 19.9764C40.5779 19.9762 40.5777 19.976 40.5777 19.9759C40.5705 19.9001 40.5687 19.8397 40.5696 19.7935C40.8117 19.7347 41.4547 19.6694 42.9595 19.9549ZM33.5739 21.4643C34.5117 20.5273 35.9687 20.4192 37.0284 21.1369C37.629 23.6549 39.777 25.9371 40.7433 26.8617C41.4595 27.547 43.7575 29.6016 46.077 30.1663C46.3908 30.6161 46.5615 31.1523 46.5615 31.7181C46.5615 32.447 46.2812 33.1284 45.7704 33.6387C45.261 34.149 44.5784 34.4299 43.8483 34.4299C43.118 34.4299 42.4354 34.149 41.9237 33.6363L41.9235 33.6362L41.9226 33.6352L33.5737 25.3014C33.0647 24.7931 32.7843 24.1117 32.7843 23.383C32.7845 22.6542 33.0648 21.9727 33.5739 21.4643ZM28.7364 29.5428C29.2457 29.0327 29.9275 28.7516 30.6566 28.7516C31.3865 28.7516 32.0705 29.0332 32.5832 29.5453L39.306 36.2547C40.3647 37.315 40.3647 39.0404 39.3097 40.097C38.7976 40.6071 38.1126 40.888 37.3812 40.888C36.6498 40.888 35.9648 40.6071 35.4549 40.0992L35.4547 40.099L30.3546 34.9999C30.3466 34.992 30.338 34.9847 30.3299 34.9766L28.7343 33.3817C28.2224 32.8704 27.9406 32.1876 27.9411 31.4593C27.9419 30.7334 28.2227 30.0542 28.7364 29.5428ZM23.8897 37.6196C24.3994 37.1106 25.0827 36.8303 25.8139 36.8303C26.5391 36.8303 27.2165 37.1066 27.724 37.6067L32.8398 42.7202C33.35 43.2283 33.631 43.909 33.631 44.6369C33.631 45.3647 33.35 46.0454 32.8378 46.5555C32.3283 47.0643 31.6457 47.3446 30.9158 47.3446C30.1847 47.3446 29.5 47.0636 28.9897 46.5555L27.1351 44.7031C27.1347 44.7025 27.1341 44.7022 27.1338 44.7018L23.8898 41.4617C23.3784 40.9509 23.0968 40.2685 23.0968 39.5406C23.0968 38.8128 23.3784 38.1303 23.8897 37.6196ZM20.6654 47.3229C21.1773 46.8115 21.8615 46.5299 22.5919 46.5299C23.322 46.5299 24.006 46.8113 24.5178 47.3224L26.375 49.1773C26.8852 49.6854 27.1661 50.3661 27.1661 51.0941C27.1661 51.822 26.8851 52.5025 26.3711 53.0147C25.8617 53.5248 25.1792 53.8058 24.449 53.8058C23.7187 53.8058 23.0362 53.5249 22.5231 53.011L22.2906 52.7794C22.2875 52.7762 22.2851 52.7729 22.2821 52.77C22.2786 52.7667 22.275 52.7637 22.2715 52.7604L20.6672 51.1624C19.6086 50.1016 19.6077 48.3794 20.6654 47.3229ZM58.3922 68.363C57.6696 67.6395 56.4974 67.6389 55.7742 68.3613L54.1272 70.0064C52.5621 71.5715 49.7262 71.3744 46.9838 71.1841C44.0057 70.9772 40.9261 70.7636 38.9332 72.8095L32.1143 79.6202L15.0623 62.5931L21.0968 56.5694C22.0943 57.1808 23.2452 57.5086 24.4494 57.5086C26.1698 57.5086 27.783 56.8417 28.988 55.6345C30.2011 54.4264 30.8693 52.8141 30.8693 51.0943C30.8693 51.0783 30.8682 51.0624 30.8682 51.0465C30.8841 51.0466 30.9001 51.0476 30.9161 51.0476C32.6341 51.0476 34.2461 50.3827 35.4527 49.1775C36.6658 47.9694 37.334 46.3569 37.334 44.6373C37.334 44.6213 37.3329 44.6055 37.3329 44.5895C37.349 44.5895 37.3652 44.5906 37.3816 44.5906C39.099 44.5906 40.7119 43.9264 41.9266 42.7167C43.1876 41.4536 43.8114 39.7908 43.7994 38.1314C43.8159 38.1316 43.8325 38.1325 43.849 38.1325C45.5694 38.1323 47.1825 37.4656 48.3893 36.2566C49.5987 35.0487 50.2648 33.4369 50.2648 31.7181C50.2648 30.5161 49.938 29.367 49.3286 28.3716L54.6178 23.0847C55.0119 22.6922 55.4979 22.4459 56.0073 22.3442C56.0625 22.3384 56.1169 22.3295 56.1707 22.3189C56.988 22.2062 57.8463 22.4584 58.4713 23.0808C59.5299 24.1413 59.5299 25.8667 58.4751 26.9233L56.8643 28.5275C56.859 28.5329 56.8533 28.5376 56.8479 28.543L54.9926 30.3952C54.2691 31.1176 54.2683 32.2898 54.9909 33.0132C55.7137 33.7367 56.8858 33.7373 57.609 33.0148L59.2262 31.3998C59.2266 31.3994 59.227 31.399 59.2273 31.3987L59.4718 31.1551C60.5334 30.1033 62.2533 30.1055 63.3137 31.1645C63.824 31.6726 64.1051 32.3533 64.1051 33.0812C64.1051 33.809 63.824 34.4897 63.3097 35.0018L61.6897 36.6251C61.6895 36.6253 61.6893 36.6255 61.6891 36.6259L59.834 38.4735C59.1095 39.195 59.1071 40.3672 59.8286 41.0915C60.5501 41.8159 61.7222 41.8181 62.4466 41.0968L64.3102 39.2408C64.8196 38.7305 65.5022 38.4496 66.2323 38.4496C66.9626 38.4496 67.6454 38.7305 68.1584 39.2444C68.6687 39.7527 68.9496 40.4334 68.9496 41.1613C68.9496 41.8891 68.6687 42.5698 68.1555 43.0808L64.9257 46.3119C64.2029 47.0351 64.2031 48.2071 64.9261 48.9299C65.2876 49.2913 65.7612 49.4718 66.2349 49.4718C66.7088 49.4718 67.1827 49.2909 67.5441 48.9294L69.127 47.3459C69.136 47.3373 69.1457 47.3297 69.1547 47.3207C69.6641 46.8104 70.3466 46.5295 71.0768 46.5295C71.8071 46.5295 72.4897 46.8104 73.0009 47.3226C74.0584 48.379 74.0575 50.1014 73.0009 51.1599L71.3915 52.7674C71.3909 52.768 71.3902 52.7685 71.3897 52.7691C71.3891 52.7696 71.3886 52.7704 71.388 52.7709L68.8336 55.3222C68.1102 56.0448 68.1095 57.217 68.8319 57.9404C69.1935 58.3023 69.6678 58.4834 70.1419 58.4834C70.6152 58.4834 71.0887 58.3029 71.4501 57.942L72.6996 56.6941L78.688 62.6755L61.6374 79.7053L55.5283 73.6034C55.9542 73.3295 56.3617 73.0075 56.7443 72.6249L58.3904 70.9808C59.1141 70.2586 59.1148 69.0863 58.3922 68.363ZM89.4727 70.6556L69.6306 90.4737C69.1665 90.9373 68.5452 91.1926 67.8812 91.1926C67.2172 91.1926 66.5959 90.9373 66.1316 90.4735L62.8601 87.206C62.3965 86.7431 62.1411 86.1237 62.1411 85.4617C62.1411 84.7999 62.3965 84.1805 62.8601 83.7174L82.7022 63.8994C83.1665 63.4356 83.7876 63.1803 84.4518 63.1803C85.1158 63.1803 85.7371 63.4356 86.2025 63.9005L89.4729 67.1617C89.9365 67.6248 90.1919 68.245 90.1919 68.9086C90.1917 69.5724 89.9363 70.1928 89.4727 70.6556Z" fill="#3B8EB6"/><path id="Vector_3" d="M22.2533 11.34C22.6147 11.7007 23.0879 11.8808 23.5611 11.8808C24.0353 11.8808 24.5098 11.6996 24.8714 11.3372C25.5936 10.6135 25.5925 9.44148 24.8688 8.71923L18.1228 1.9867C17.3993 1.26445 16.2271 1.26537 15.5048 1.98927C14.7826 2.71298 14.7837 3.88504 15.5074 4.60728L22.2533 11.34Z" fill="#3B8EB6"/><path id="Vector_4" d="M70.1105 11.8809C70.5839 11.8809 71.0574 11.7004 71.4188 11.3395L78.1596 4.60678C78.8829 3.88436 78.8837 2.71212 78.1611 1.98877C77.4386 1.26542 76.2666 1.26469 75.5431 1.9873L68.8022 8.72002C68.0789 9.44245 68.0782 10.6147 68.8008 11.338C69.1624 11.7 69.6364 11.8809 70.1105 11.8809Z" fill="#3B8EB6"/><path id="Vector_5" d="M11.4886 80.5742C10.7719 81.3032 10.7818 82.4755 11.511 83.1922L11.5164 83.1974C11.8761 83.551 12.3432 83.7271 12.8101 83.7271C13.2893 83.7271 13.7686 83.5417 14.1316 83.1724C14.8484 82.4433 14.8357 81.2685 14.1066 80.5518C13.3778 79.835 12.2057 79.8452 11.4886 80.5742Z" fill="#3B8EB6"/><path id="Vector_6" d="M62.9199 65.6961C63.2016 65.6961 63.4872 65.6319 63.7554 65.4968C64.6683 65.0363 65.035 63.9231 64.5747 63.0102C64.1143 62.0974 63.0008 61.7305 62.0881 62.1909L62.0779 62.1961C61.165 62.6566 60.8034 63.7672 61.2637 64.6801C61.5887 65.3249 62.2424 65.6961 62.9199 65.6961Z" fill="#3B8EB6"/></g></svg>