<svg xmlns="http://www.w3.org/2000/svg" width="90" height="90" viewBox="0 0 90 90" fill="none"><g id="Drag and drop"><path id="Vector" d="M9.1084 44.0979C9.1084 45.0501 9.8796 45.8213 10.8317 45.8213C11.7834 45.8213 12.5551 45.0501 12.5551 44.0979V41.5129C12.5551 40.5613 11.7834 39.7896 10.8317 39.7896C9.8796 39.7896 9.1084 40.5613 9.1084 41.5129V44.0979Z" fill="#3B8EB6"/><path id="Vector_2" d="M10.8317 26.8645C11.7834 26.8645 12.5551 26.0933 12.5551 25.1411V22.5561C12.5551 21.6045 11.7834 20.8328 10.8317 20.8328C9.8796 20.8328 9.1084 21.6045 9.1084 22.5561V25.1411C9.1084 26.0933 9.8796 26.8645 10.8317 26.8645Z" fill="#3B8EB6"/><path id="Vector_3" d="M9.1084 34.6195C9.1084 35.5717 9.8796 36.3429 10.8317 36.3429C11.7834 36.3429 12.5551 35.5717 12.5551 34.6195V32.0345C12.5551 31.0829 11.7834 30.3112 10.8317 30.3112C9.8796 30.3112 9.1084 31.0829 9.1084 32.0345V34.6195Z" fill="#3B8EB6"/><path id="Vector_4" d="M10.8317 52.7146H13.4168C14.3684 52.7146 15.1401 51.9434 15.1401 50.9913C15.1401 50.0397 14.3684 49.2679 13.4168 49.2679H10.8317C9.8796 49.2679 9.1084 50.0397 9.1084 50.9913C9.1084 51.9434 9.8796 52.7146 10.8317 52.7146Z" fill="#3B8EB6"/><path id="Vector_5" d="M54.9494 26.5197C55.901 26.5197 56.6728 25.7486 56.6728 24.7964V22.2114C56.6728 21.2598 55.901 20.488 54.9494 20.488C53.9973 20.488 53.2261 21.2598 53.2261 22.2114V24.7964C53.2261 25.7486 53.9973 26.5197 54.9494 26.5197Z" fill="#3B8EB6"/><path id="Vector_6" d="M48.2283 23.7625C49.1799 23.7625 49.9516 22.9913 49.9516 22.0391C49.9516 21.0875 49.1799 20.3158 48.2283 20.3158H45.6433C44.6911 20.3158 43.9199 21.0875 43.9199 22.0391C43.9199 22.9913 44.6911 23.7625 45.6433 23.7625H48.2283Z" fill="#3B8EB6"/><path id="Vector_7" d="M19.7932 20.3158H17.2082C16.2561 20.3158 15.4849 21.0875 15.4849 22.0391C15.4849 22.9913 16.2561 23.7625 17.2082 23.7625H19.7932C20.7448 23.7625 21.5166 22.9913 21.5166 22.0391C21.5166 21.0875 20.7448 20.3158 19.7932 20.3158Z" fill="#3B8EB6"/><path id="Vector_8" d="M38.7503 23.7625C39.7019 23.7625 40.4736 22.9913 40.4736 22.0391C40.4736 21.0875 39.7019 20.3158 38.7503 20.3158H36.1652C35.2131 20.3158 34.4419 21.0875 34.4419 22.0391C34.4419 22.9913 35.2131 23.7625 36.1652 23.7625H38.7503Z" fill="#3B8EB6"/><path id="Vector_9" d="M53.2261 34.2748C53.2261 35.2269 53.9973 35.9981 54.9494 35.9981C55.901 35.9981 56.6728 35.2269 56.6728 34.2748V31.6898C56.6728 30.7382 55.901 29.9664 54.9494 29.9664C53.9973 29.9664 53.2261 30.7382 53.2261 31.6898V34.2748Z" fill="#3B8EB6"/><path id="Vector_10" d="M29.2717 23.7625C30.2234 23.7625 30.9951 22.9913 30.9951 22.0391C30.9951 21.0875 30.2234 20.3158 29.2717 20.3158H26.6867C25.7346 20.3158 24.9634 21.0875 24.9634 22.0391C24.9634 22.9913 25.7346 23.7625 26.6867 23.7625H29.2717Z" fill="#3B8EB6"/><path id="Vector_11" d="M18.5869 50.9913C18.5869 51.9434 19.3581 52.7146 20.3103 52.7146H22.8953C23.8469 52.7146 24.6186 51.9434 24.6186 50.9913C24.6186 50.0397 23.8469 49.2679 22.8953 49.2679H20.3103C19.3581 49.2679 18.5869 50.0397 18.5869 50.9913Z" fill="#3B8EB6"/><path id="Vector_12" d="M56.7301 6.48584H32.8908C31.9387 6.48584 31.1675 7.25758 31.1675 8.20919C31.1675 9.16134 31.9387 9.93253 32.8908 9.93253H56.7301C57.6822 9.93253 58.4534 9.16134 58.4534 8.20919C58.4534 7.25758 57.6822 6.48584 56.7301 6.48584Z" fill="#3B8EB6"/><path id="Vector_13" d="M15.8 6.48694C15.3471 6.48694 14.9028 6.66897 14.5824 6.99156C14.2608 7.31199 14.0767 7.75521 14.0767 8.21028C14.0767 8.6632 14.2608 9.10804 14.5824 9.42848C14.9028 9.74891 15.3471 9.93363 15.8 9.93363C16.2535 9.93363 16.6978 9.74891 17.0182 9.42848C17.3386 9.10804 17.5234 8.6632 17.5234 8.21028C17.5234 7.75521 17.3397 7.31199 17.0182 6.99156C16.6978 6.66897 16.2551 6.48694 15.8 6.48694Z" fill="#3B8EB6"/><path id="Vector_14" d="M8.70723 6.48694C8.25324 6.48694 7.80894 6.66897 7.4885 6.99156C7.16645 7.31199 6.98389 7.75683 6.98389 8.21028C6.98389 8.6632 7.16645 9.10804 7.4885 9.42848C7.80894 9.74891 8.25216 9.93363 8.70723 9.93363C9.16015 9.93363 9.60337 9.74891 9.92488 9.42848C10.2453 9.10804 10.4306 8.6632 10.4306 8.21028C10.4306 7.75683 10.2459 7.31199 9.92488 6.99156C9.60337 6.66897 9.16015 6.48694 8.70723 6.48694Z" fill="#3B8EB6"/><path id="Vector_15" d="M22.8952 6.48694C22.4423 6.48694 21.9969 6.67112 21.6765 6.99156C21.3561 7.31199 21.1719 7.75521 21.1719 8.21028C21.1719 8.6632 21.3561 9.10804 21.6765 9.42848C21.9969 9.74891 22.4423 9.93363 22.8952 9.93363C23.3481 9.93363 23.793 9.74891 24.1134 9.42848C24.4338 9.10804 24.6186 8.6632 24.6186 8.21028C24.6186 7.75521 24.4338 7.31199 24.1134 6.99156C23.793 6.67112 23.3481 6.48694 22.8952 6.48694Z" fill="#3B8EB6"/><path id="Vector_16" d="M2.55977 52.7157C3.01269 52.7157 3.45753 52.531 3.77796 52.2106C4.0984 51.8901 4.28312 51.4453 4.28312 50.9924C4.28312 50.5389 4.0984 50.0941 3.77796 49.7737C3.45753 49.4532 3.01269 49.269 2.55977 49.269C2.10686 49.269 1.66148 49.4532 1.34104 49.7737C1.02061 50.0941 0.836426 50.5389 0.836426 50.9924C0.836426 51.4453 1.02061 51.8901 1.34104 52.2106C1.66148 52.531 2.10686 52.7157 2.55977 52.7157Z" fill="#3B8EB6"/><path id="Vector_17" d="M88.5666 79.5235L79.6833 70.6402L85.8039 67.9943C86.4771 67.7035 86.8928 67.0179 86.839 66.2871C86.7851 65.5552 86.2746 64.938 85.5658 64.7479L79.7657 63.1937V42.311C79.7657 41.3589 78.994 40.5877 78.0424 40.5877H64.9449V6.09814C64.9449 3.24762 62.6259 0.928101 59.7749 0.928101H6.00647C3.1554 0.928101 0.836426 3.24762 0.836426 6.09814V44.0118C0.836426 44.9639 1.60762 45.7351 2.55977 45.7351C3.51138 45.7351 4.28312 44.9639 4.28312 44.0118V15.4904H61.4982V40.5877H33.9247C32.9725 40.5877 32.2013 41.3589 32.2013 42.311V49.268H29.7887C28.8365 49.268 28.0653 50.0397 28.0653 50.9913C28.0653 51.9435 28.8365 52.7147 29.7887 52.7147H32.2013V61.5037H6.00647C5.05593 61.5037 4.28312 60.7309 4.28312 59.7804V57.7985C4.28312 56.8469 3.51138 56.0752 2.55977 56.0752C1.60762 56.0752 0.836426 56.8469 0.836426 57.7985V59.7804C0.836426 62.6314 3.1554 64.9504 6.00647 64.9504H32.2013V71.2627C32.2013 72.2143 32.9725 72.9861 33.9247 72.9861H61.2634L64.6579 85.6553C64.848 86.3635 65.4652 86.8746 66.197 86.9279C66.9278 86.9823 67.6134 86.5666 67.9048 85.8934L70.5512 79.7728L79.4345 88.6561C79.7576 88.9793 80.196 89.1608 80.6527 89.1608C81.1099 89.1608 81.5483 88.9793 81.8714 88.6561L88.5666 81.9609C89.2398 81.2878 89.2398 80.1967 88.5666 79.5235ZM4.28312 12.0437V6.09814C4.28312 5.14761 5.05593 4.37479 6.00647 4.37479H59.7749C60.7254 4.37479 61.4982 5.14761 61.4982 6.09814V12.0437H4.28312ZM35.648 69.5394V44.0344H76.319V62.2701L59.8885 57.8675C59.2934 57.7081 58.6596 57.8782 58.2239 58.3139C57.7887 58.7485 57.6185 59.3835 57.778 59.9786L60.3398 69.5394H35.648ZM80.6527 85.0005L71.1942 75.5415C70.8673 75.2156 70.4284 75.0368 69.9755 75.0368C69.8683 75.0368 69.7601 75.0471 69.6524 75.0675C69.0917 75.1747 68.6205 75.5522 68.3938 76.0762L66.706 79.9807L61.8801 61.9696L79.8906 66.796L75.9873 68.4833C75.4633 68.7095 75.0857 69.1807 74.9786 69.7413C74.8714 70.3025 75.0486 70.8798 75.4525 71.2837L84.9115 80.7427L80.6527 85.0005Z" fill="#3B8EB6"/></g></svg>