<?xml version="1.0" encoding="UTF-8"?>
<svg version="1.1" xmlns="http://www.w3.org/2000/svg" width="485" height="514">
<path d="M0 0 C1.03381805 -0.0049649 2.06763611 -0.00992981 3.13278198 -0.01504517 C6.52765588 -0.02956111 9.92248308 -0.0364507 13.31738281 -0.04199219 C15.0679385 -0.04623325 15.0679385 -0.04623325 16.85385895 -0.05056 C23.02855147 -0.06550899 29.20322088 -0.07476583 35.37792969 -0.07910156 C41.7269655 -0.0845831 48.07578655 -0.10861705 54.4247551 -0.13707352 C59.33380741 -0.1557751 64.24280871 -0.16090947 69.15189362 -0.16243744 C71.49125595 -0.16544697 73.83061776 -0.17341739 76.16994476 -0.18662262 C94.60459288 -0.28326761 109.7305316 1.45588217 126.27050781 10.16113281 C126.27050781 10.82113281 126.27050781 11.48113281 126.27050781 12.16113281 C127.00527344 12.40992188 127.74003906 12.65871094 128.49707031 12.91503906 C138.60167351 17.45499458 145.3664636 29.37937032 149.58300781 39.16113281 C155.80022767 56.15842486 154.5588885 74.1191798 147.02050781 90.47363281 C138.85091822 105.51367236 126.01607645 115.59851778 110.10644531 121.39941406 C103.05449076 123.29353409 95.97228885 123.30200252 88.72363281 123.2746582 C87.69833969 123.27480423 86.67304657 123.27495026 85.61668396 123.27510071 C82.25126987 123.27440792 78.88591216 123.26664534 75.52050781 123.25878906 C73.17781606 123.25692263 70.83512392 123.25549979 68.49243164 123.25450134 C62.34400341 123.25069391 56.19559902 123.24087883 50.04718018 123.22979736 C43.76615725 123.21954504 37.48513045 123.21499555 31.20410156 123.20996094 C18.89289321 123.19925492 6.5817025 123.18219988 -5.72949219 123.16113281 C-5.72727158 124.20523819 -5.72505096 125.24934357 -5.72276306 126.3250885 C-5.70238231 136.22437936 -5.6874487 146.12366589 -5.67768002 156.02297306 C-5.67248883 161.11078334 -5.66546059 166.19857651 -5.65405273 171.28637695 C-5.64308878 176.20769351 -5.63718709 181.12899374 -5.63461494 186.05032158 C-5.6327848 187.91632786 -5.62921175 189.78233337 -5.62376213 191.6483326 C-5.51084158 231.96199536 -5.51084158 231.96199536 -18.72949219 250.16113281 C-19.25285156 250.92039062 -19.77621094 251.67964844 -20.31542969 252.46191406 C-20.78207031 253.02265625 -21.24871094 253.58339844 -21.72949219 254.16113281 C-22.38949219 254.16113281 -23.04949219 254.16113281 -23.72949219 254.16113281 C-23.72949219 254.82113281 -23.72949219 255.48113281 -23.72949219 256.16113281 C-24.38949219 256.16113281 -25.04949219 256.16113281 -25.72949219 256.16113281 C-25.72949219 256.82113281 -25.72949219 257.48113281 -25.72949219 258.16113281 C-26.38949219 258.16113281 -27.04949219 258.16113281 -27.72949219 258.16113281 C-27.72949219 258.82113281 -27.72949219 259.48113281 -27.72949219 260.16113281 C-42.44303395 270.8157665 -58.81714516 276.53119261 -77.09667969 273.62597656 C-91.39916993 270.54673455 -103.53431052 264.85191358 -113.72949219 254.16113281 C-113.72949219 253.50113281 -113.72949219 252.84113281 -113.72949219 252.16113281 C-114.38949219 252.16113281 -115.04949219 252.16113281 -115.72949219 252.16113281 C-128.86529503 234.53299912 -130.04481545 215.28238815 -129.99511719 194.05957031 C-129.99646792 192.01233881 -129.99841184 189.96510762 -130.00091553 187.9178772 C-130.00385156 183.63971891 -129.99962101 179.36164456 -129.99023438 175.08349609 C-129.97888443 169.65092402 -129.9853808 164.21855062 -129.9973793 158.78598595 C-130.00467649 154.55956583 -130.00227358 150.3331912 -129.99712372 146.10676956 C-129.99580656 144.10648194 -129.99736555 142.10618993 -130.00208282 140.10590744 C-130.07265061 101.75789895 -122.11717578 68.34975052 -95.72949219 39.28613281 C-95.26067627 38.76801025 -94.79186035 38.2498877 -94.30883789 37.71606445 C-93.16052957 36.48761708 -91.94990207 35.31797968 -90.72949219 34.16113281 C-90.06949219 34.16113281 -89.40949219 34.16113281 -88.72949219 34.16113281 C-88.72949219 33.50113281 -88.72949219 32.84113281 -88.72949219 32.16113281 C-86.87043048 30.52418486 -85.01655783 29.02313414 -83.04199219 27.53613281 C-82.45909424 27.09317871 -81.87619629 26.65022461 -81.27563477 26.19384766 C-70.52765214 18.15557378 -59.05901287 11.33633598 -46.29199219 7.09863281 C-45.13389038 6.71348511 -45.13389038 6.71348511 -43.95239258 6.32055664 C-29.74622152 1.77475513 -14.87173593 0.01736968 0 0 Z " fill="#00B7E8" transform="translate(220.7294921875,197.8388671875)"/>
<path d="M0 0 C2.57957955 0.02404186 5.15916043 0.04355099 7.73878479 0.06209946 C11.77440792 0.09256273 15.80955516 0.13877548 19.84486198 0.1975956 C21.30445841 0.21697711 22.76412454 0.23180021 24.22381783 0.24143791 C40.89997376 0.36195532 57.85196506 4.94012433 70.28041077 16.77416611 C82.92159461 30.42857461 89.90006311 46.60086479 89.51869202 65.20775986 C88.64684493 78.25688103 83.48620006 89.96548217 76.28041077 100.77416611 C75.62041077 100.77416611 74.96041077 100.77416611 74.28041077 100.77416611 C73.90916077 101.64041611 73.90916077 101.64041611 73.53041077 102.52416611 C72.09741088 105.1035659 70.496164 106.83538203 68.28041077 108.77416611 C67.62041077 108.77416611 66.96041077 108.77416611 66.28041077 108.77416611 C66.28041077 109.43416611 66.28041077 110.09416611 66.28041077 110.77416611 C52.80078206 119.10041353 40.06885398 123.88891113 23.99909973 123.90546799 C23.31217175 123.9075837 22.62524376 123.90969941 21.91749978 123.91187924 C19.63969056 123.91782031 17.36193767 123.91688331 15.0841217 123.91601181 C13.44053556 123.91904747 11.79695025 123.92257004 10.15336609 123.92654037 C6.62309935 123.93440238 3.09284258 123.93956426 -0.43743134 123.94283104 C-6.03881873 123.94877551 -11.64014371 123.96535097 -17.24150085 123.98417282 C-19.16547009 123.99050979 -21.08943936 123.99683542 -23.01340866 124.00314999 C-23.97682411 124.0063158 -24.94023955 124.00948161 -25.93284941 124.01274335 C-38.96136086 124.05466506 -51.98984297 124.08774789 -65.01841736 124.10009384 C-73.82154915 124.1085211 -82.62452559 124.13118424 -91.42757964 124.16944951 C-96.07385 124.18905727 -100.71988899 124.20166633 -105.36620331 124.19661522 C-138.13489083 124.16777857 -168.58199296 126.93450564 -196.04771423 146.70775986 C-197.71958923 147.77416611 -197.71958923 147.77416611 -199.71958923 147.77416611 C-199.71958923 148.43416611 -199.71958923 149.09416611 -199.71958923 149.77416611 C-201.39927673 151.28197861 -201.39927673 151.28197861 -203.59458923 152.89916611 C-204.31388611 153.43799423 -205.03318298 153.97682236 -205.77427673 154.53197861 C-207.71958923 155.77416611 -207.71958923 155.77416611 -209.71958923 155.77416611 C-209.71958923 156.43416611 -209.71958923 157.09416611 -209.71958923 157.77416611 C-210.37958923 157.77416611 -211.03958923 157.77416611 -211.71958923 157.77416611 C-211.71958923 158.43416611 -211.71958923 159.09416611 -211.71958923 159.77416611 C-212.37958923 159.77416611 -213.03958923 159.77416611 -213.71958923 159.77416611 C-213.71958923 160.43416611 -213.71958923 161.09416611 -213.71958923 161.77416611 C-214.37958923 161.77416611 -215.03958923 161.77416611 -215.71958923 161.77416611 C-215.71958923 162.43416611 -215.71958923 163.09416611 -215.71958923 163.77416611 C-216.37958923 163.77416611 -217.03958923 163.77416611 -217.71958923 163.77416611 C-217.95548767 164.31943954 -218.19138611 164.86471298 -218.43443298 165.42650986 C-220.63319507 169.44309349 -223.77171205 172.73482933 -226.72349548 176.21557236 C-228.87274615 178.6766143 -228.87274615 178.6766143 -229.71958923 181.77416611 C-230.37958923 181.77416611 -231.03958923 181.77416611 -231.71958923 181.77416611 C-231.98126892 182.62881454 -232.24294861 183.48346298 -232.51255798 184.36400986 C-233.75838895 187.88378472 -235.30354727 191.02905699 -237.03208923 194.33666611 C-240.44749787 200.98097643 -243.18449375 207.74132058 -245.71958923 214.77416611 C-246.70958923 214.44416611 -247.69958923 214.11416611 -248.71958923 213.77416611 C-248.78960003 201.73315657 -248.84265678 189.69219674 -248.87502575 177.65102386 C-248.89057388 172.05771995 -248.91160977 166.46455694 -248.94590759 160.87133408 C-248.97889326 155.4572095 -248.99652344 150.04321905 -249.00422096 144.62900162 C-249.00969505 142.58010629 -249.02038049 140.53121693 -249.0367794 138.48237991 C-249.27575832 107.34022015 -243.53274656 78.77085881 -225.71958923 52.77416611 C-225.18591736 51.97108017 -224.65224548 51.16799423 -224.10240173 50.34057236 C-223.03712944 48.77418086 -221.88993103 47.26369203 -220.71958923 45.77416611 C-220.05958923 45.77416611 -219.39958923 45.77416611 -218.71958923 45.77416611 C-218.49271423 45.21729111 -218.26583923 44.66041611 -218.03208923 44.08666611 C-216.33386122 41.09455008 -214.21194727 39.15816076 -211.71958923 36.77416611 C-211.18720642 36.19795517 -210.65482361 35.62174423 -210.10630798 35.02807236 C-190.34466797 13.99694797 -159.9439754 1.50856918 -131.35367489 0.27684307 C-127.09512108 0.16471495 -122.83880259 0.13925012 -118.57896423 0.12963486 C-116.67224699 0.11145471 -114.76554367 0.09176228 -112.8588562 0.07069016 C-107.77912561 0.02002744 -102.69957678 -0.00572865 -97.61964035 -0.02476883 C-94.4506396 -0.0384155 -91.28175563 -0.05887495 -88.11280823 -0.08166885 C-58.74200363 -0.29230939 -29.37023831 -0.28898943 0 0 Z " fill="#03B6E8" transform="translate(339.71958923339844,51.225833892822266)"/>
<path d="M0 0 C0.86109375 0.00644531 1.7221875 0.01289063 2.609375 0.01953125 C9.47377492 0.35774074 15.08465843 3.72704451 21 7 C21 7.66 21 8.32 21 9 C22.10214844 9.37318359 22.10214844 9.37318359 23.2265625 9.75390625 C33.33116569 14.29386177 40.09595579 26.21823751 44.3125 36 C50.52971985 52.99729204 49.28838069 70.95804698 41.75 87.3125 C33.65824253 102.20925228 20.88466007 112.46252411 5.06644249 118.13019562 C0.12391397 119.53215668 -4.60677716 119.52565212 -9.71362305 119.45410156 C-10.82713638 119.45468567 -11.94064972 119.45526978 -13.08790588 119.45587158 C-16.72950583 119.45310854 -20.37026368 119.42209998 -24.01171875 119.390625 C-26.55190077 119.38315631 -29.09208858 119.37746635 -31.63227844 119.37347412 C-37.61029321 119.35981751 -43.58795242 119.32836666 -49.56582528 119.28807616 C-56.37848417 119.2431685 -63.19115819 119.221324 -70.00392854 119.20129442 C-84.00278269 119.15962738 -98.001375 119.08939489 -112 119 C-112.02900405 116.49731044 -112.0499169 113.99496632 -112.06640625 111.4921875 C-112.07530884 110.79504639 -112.08421143 110.09790527 -112.09338379 109.37963867 C-112.2244074 82.72789441 -97.73303062 52.49518528 -79.25 33.8125 C-63.74129601 18.63245729 -45.70262242 8.27219281 -25 2 C-23.7625 1.60167969 -23.7625 1.60167969 -22.5 1.1953125 C-15.23372996 -0.81392126 -7.46637891 -0.22276233 0 0 Z " fill="#017EC2" transform="translate(326,201)"/>
<path d="M0 0 C1.81987977 0.00186946 3.63976005 0.00329087 5.4596405 0.00428772 C10.20567257 0.00807132 14.9516731 0.01786516 19.69769287 0.0289917 C24.5582232 0.03929613 29.41875872 0.04380452 34.27929688 0.04882812 C43.78386787 0.05949195 53.28841567 0.07651723 62.79296875 0.09765625 C62.79296875 0.42765625 62.79296875 0.75765625 62.79296875 1.09765625 C62.14150879 1.17693359 61.49004883 1.25621094 60.81884766 1.33789062 C10.52055371 7.6898817 -32.49967897 29.27712694 -68.20703125 65.09765625 C-68.95082031 65.79503906 -69.69460937 66.49242188 -70.4609375 67.2109375 C-81.73638007 77.95217974 -90.3329867 90.73672094 -98.20703125 104.09765625 C-98.71492188 104.89945312 -99.2228125 105.70125 -99.74609375 106.52734375 C-118.2497782 135.91554846 -125.22786251 170.01443323 -128.20703125 204.09765625 C-128.53703125 204.09765625 -128.86703125 204.09765625 -129.20703125 204.09765625 C-129.25357265 192.21376907 -129.28901055 180.32990393 -129.31065559 168.44594383 C-129.32104923 162.92649468 -129.33512684 157.40710833 -129.35791016 151.88769531 C-129.37979724 146.55141211 -129.39163303 141.21518895 -129.39678574 135.87886429 C-129.40045322 133.85293255 -129.40761403 131.82700373 -129.41849136 129.80109787 C-129.49197087 115.53546089 -128.95502724 101.90596981 -124.95703125 88.09765625 C-124.74014648 87.34129883 -124.52326172 86.58494141 -124.29980469 85.80566406 C-120.49630553 72.96682552 -114.72317777 62.0667926 -107.20703125 51.09765625 C-106.67335938 50.29457031 -106.1396875 49.49148437 -105.58984375 48.6640625 C-104.52457146 47.097671 -103.37737304 45.58718217 -102.20703125 44.09765625 C-101.54703125 44.09765625 -100.88703125 44.09765625 -100.20703125 44.09765625 C-99.98015625 43.54078125 -99.75328125 42.98390625 -99.51953125 42.41015625 C-97.82130323 39.41804022 -95.69938929 37.4816509 -93.20703125 35.09765625 C-92.67464844 34.52144531 -92.14226562 33.94523437 -91.59375 33.3515625 C-67.10243667 7.2869314 -34.3427804 -0.10477219 0 0 Z " fill="#037EC1" transform="translate(221.20703125,52.90234375)"/>
<path d="M0 0 C2.2167804 0.02013336 4.43357884 0.03837182 6.65039062 0.0546875 C11.99649834 0.09805411 17.34190992 0.16440301 22.6875 0.25 C22.08708856 3.77834378 21.81064151 4.15567885 18.75 6.5 C15.6875 8.25 15.6875 8.25 13.6875 8.25 C13.6875 8.91 13.6875 9.57 13.6875 10.25 C13.0275 10.25 12.3675 10.25 11.6875 10.25 C11.58824219 10.85328125 11.48898438 11.4565625 11.38671875 12.078125 C10.54864734 14.68129654 9.66217215 15.37717764 7.5 17 C3.00538651 20.63275977 -0.71777093 25.06054187 -3.3125 30.25 C-3.9725 30.25 -4.6325 30.25 -5.3125 30.25 C-6.38775194 32.90228812 -7.40706151 35.53368454 -8.3125 38.25 C-8.9725 38.25 -9.6325 38.25 -10.3125 38.25 C-10.56128906 39.08273438 -10.81007812 39.91546875 -11.06640625 40.7734375 C-12.47194758 44.69485376 -14.3042421 48.20303751 -16.25 51.875 C-19.24707301 57.67755843 -21.43193357 63.16101855 -22.7421875 69.6015625 C-23.3125 72.25 -23.3125 72.25 -24.24830627 74.92723083 C-29.05478632 89.93467102 -28.75322148 105.66755426 -28.75390625 121.24609375 C-28.76570927 123.61541038 -28.7790805 125.98471967 -28.79393005 128.35401917 C-28.82981503 134.53916885 -28.85023037 140.7242533 -28.86547852 146.90948486 C-28.89048124 156.83027824 -28.93023091 166.75092768 -28.98737907 176.67158699 C-29.00357939 180.11413682 -29.0074724 183.5565472 -29.01039124 186.99913025 C-29.02017328 189.12369014 -29.03043749 191.24824789 -29.04125977 193.37280273 C-29.03870682 194.31485565 -29.03615387 195.25690857 -29.03352356 196.22750854 C-29.16521846 213.54451408 -35.42337222 224.25650262 -46.8515625 236.9609375 C-49.04551193 238.89677523 -51.53968987 239.44896596 -54.3125 240.25 C-54.125 238 -54.125 238 -53.3125 235.25 C-51.65461215 233.90576661 -49.98673683 232.57381517 -48.3125 231.25 C-40.97393825 220.02631733 -40.1767267 208.99415054 -40.13891602 195.85351562 C-40.132229 194.86659729 -40.12554199 193.87967896 -40.11865234 192.862854 C-40.10469223 190.73608079 -40.09277017 188.60929338 -40.08270454 186.48249817 C-40.06612771 183.09940457 -40.04288214 179.71641472 -40.01780701 176.33337402 C-39.94750831 166.719699 -39.88722013 157.10598118 -39.83569336 147.4921875 C-39.80361022 141.59316309 -39.76226416 135.69425923 -39.71549797 129.79533386 C-39.6996519 127.56619974 -39.68725196 125.337038 -39.67859077 123.10786438 C-39.54655046 89.59706884 -39.54655046 89.59706884 -34.875 74.8125 C-34.43471302 73.32687708 -33.9946086 71.84120005 -33.5546875 70.35546875 C-33.34295898 69.6598584 -33.13123047 68.96424805 -32.91308594 68.24755859 C-32.05338055 65.38816449 -31.2752684 62.50826009 -30.5 59.625 C-30.26667969 58.76648438 -30.03335938 57.90796875 -29.79296875 57.0234375 C-29.55513672 56.14558594 -29.55513672 56.14558594 -29.3125 55.25 C-28.6525 55.25 -27.9925 55.25 -27.3125 55.25 C-27.15394531 54.71632813 -26.99539062 54.18265625 -26.83203125 53.6328125 C-24.91196085 47.50131697 -22.31015643 41.92540486 -19.3125 36.25 C-18.6525 36.25 -17.9925 36.25 -17.3125 36.25 C-17.2000293 35.66734375 -17.08755859 35.0846875 -16.97167969 34.484375 C-16.24942854 32.0362111 -15.28779205 30.53938782 -13.765625 28.5 C-13.25 27.8090625 -12.734375 27.118125 -12.203125 26.40625 C-11.39101562 25.33890625 -11.39101562 25.33890625 -10.5625 24.25 C-10.0365625 23.5384375 -9.510625 22.826875 -8.96875 22.09375 C-6.62183527 18.98002155 -4.65728398 16.50144467 -1.484375 14.1875 C1.52743907 11.50070183 1.26661726 9.15416694 1.6875 5.25 C-2.36522458 5.2249117 -6.41791786 5.20696033 -10.47070312 5.19506836 C-11.84375803 5.19010049 -13.21680782 5.1833239 -14.58984375 5.17456055 C-25.64842503 5.1058486 -36.64614281 5.09856089 -47.4375 7.75 C-48.51257813 8.0078125 -49.58765625 8.265625 -50.6953125 8.53125 C-53.26728009 9.14639716 -53.26728009 9.14639716 -55.3125 10.25 C-55.3125 9.26 -55.3125 8.27 -55.3125 7.25 C-37.05534243 0.77641778 -19.23661801 -0.30916254 0 0 Z " fill="#00A2E3" transform="translate(230.3125,211.75)"/>
<path d="M0 0 C0 0.33 0 0.66 0 1 C-0.68513672 1.08040527 -1.37027344 1.16081055 -2.07617188 1.24365234 C-5.21810402 1.61544411 -8.35903086 1.99516187 -11.5 2.375 C-12.57765625 2.50132813 -13.6553125 2.62765625 -14.765625 2.7578125 C-20.65195666 3.47565782 -26.30197583 4.36198643 -32 6 C-32.86979492 6.24234375 -33.73958984 6.4846875 -34.63574219 6.734375 C-41.78046893 8.7434539 -48.89535896 10.8538965 -56 13 C-56.71591309 13.21527344 -57.43182617 13.43054688 -58.16943359 13.65234375 C-73.11036572 18.24589829 -87.0857174 26.30395041 -100 35 C-100.73863281 35.47695312 -101.47726563 35.95390625 -102.23828125 36.4453125 C-110.70782925 41.95127088 -118.91579808 47.77711876 -126 55 C-127.34253619 56.18003181 -128.69584449 57.3479882 -130.0625 58.5 C-133.08960522 61.1174218 -135.59164646 63.78886195 -138 67 C-139.625 68.8125 -139.625 68.8125 -141 70 C-141.66 70 -142.32 70 -143 70 C-143.37705078 70.85464844 -143.37705078 70.85464844 -143.76171875 71.7265625 C-145.16746752 74.30746403 -146.82665757 76.21069754 -148.8125 78.375 C-149.52535156 79.16519531 -150.23820312 79.95539063 -150.97265625 80.76953125 C-152.14559783 82.05999299 -153.31952725 83.34956114 -154.49609375 84.63671875 C-157.85288837 88.45363476 -159.87077419 92.42610752 -162 97 C-162.66 97 -163.32 97 -164 97 C-164.26554687 97.89203125 -164.53109375 98.7840625 -164.8046875 99.703125 C-165.94467356 102.84740027 -167.21479852 105.03129464 -169.125 107.75 C-174.10314346 115.36241105 -177.51069345 123.63184004 -181 132 C-181.4640625 133.1034375 -181.928125 134.206875 -182.40625 135.34375 C-188.90581721 151.50934025 -194.69457383 169.28572821 -195.375 186.75 C-195.66817963 192.65023999 -196.77961166 196.61890883 -199.72265625 201.703125 C-201.71004822 205.27678395 -202.83950884 209.09395659 -204 213 C-204.99 212.67 -205.98 212.34 -207 212 C-207 180.65 -207 149.3 -207 117 C-206.67 117 -206.34 117 -206 117 C-205.67 142.74 -205.34 168.48 -205 195 C-204.34 189.06 -203.68 183.12 -203 177 C-202.34196132 173.16020877 -201.66305953 169.41507075 -200.8125 165.625 C-200.59891846 164.66440674 -200.38533691 163.70381348 -200.1652832 162.71411133 C-195.70014178 143.47174187 -188.31195373 123.9071328 -178 107 C-177.68401855 106.46294434 -177.36803711 105.92588867 -177.04248047 105.37255859 C-172.13312062 97.03754665 -166.79580972 89.15272018 -160.875 81.5 C-160.31369385 80.77111572 -159.7523877 80.04223145 -159.17407227 79.29125977 C-155.62338429 74.78396315 -151.82678254 70.69166133 -147.70361328 66.70141602 C-145.86356585 64.93350088 -145.86356585 64.93350088 -144 62.4375 C-141.04654344 58.83797482 -137.54559213 56.00359078 -134 53 C-133.02546875 52.14921875 -132.0509375 51.2984375 -131.046875 50.421875 C-123.70074505 44.04124286 -116.14883617 38.34025671 -108 33 C-106.53046875 32.01773438 -106.53046875 32.01773438 -105.03125 31.015625 C-91.11557124 22.04933714 -75.76545841 15.00463631 -60 10 C-58.53772164 9.50402057 -57.07548473 9.0079189 -55.61328125 8.51171875 C-37.92539192 2.68754727 -18.69322806 -1.22355675 0 0 Z " fill="#08F6FB" transform="translate(298,53)"/>
<path d="M0 0 C1.59242535 0.02010392 3.18487533 0.03834779 4.77734375 0.0546875 C8.64384689 0.09835706 12.50914576 0.16716482 16.375 0.25 C16.375 0.58 16.375 0.91 16.375 1.25 C15.72354004 1.32927734 15.07208008 1.40855469 14.40087891 1.49023438 C-35.89741504 7.84222545 -78.91764772 29.42947069 -114.625 65.25 C-115.36878906 65.94738281 -116.11257812 66.64476563 -116.87890625 67.36328125 C-128.15434882 78.10452349 -136.75095545 90.88906469 -144.625 104.25 C-145.13289063 105.05179687 -145.64078125 105.85359375 -146.1640625 106.6796875 C-162.18748421 132.12865139 -169.76263257 161.73272047 -173.625 191.25 C-173.955 191.25 -174.285 191.25 -174.625 191.25 C-174.70039006 187.215665 -174.75417203 183.18161493 -174.78979492 179.14672852 C-174.80467888 177.78044474 -174.82499286 176.41420692 -174.85131836 175.0480957 C-175.25192273 153.6903841 -175.25192273 153.6903841 -169.625 145.25 C-169.02760055 143.20294775 -168.49090017 141.13766892 -168 139.0625 C-167.73960937 137.97582031 -167.47921875 136.88914063 -167.2109375 135.76953125 C-166.92089844 134.52236328 -166.92089844 134.52236328 -166.625 133.25 C-165.965 133.25 -165.305 133.25 -164.625 133.25 C-164.5425 132.26 -164.46 131.27 -164.375 130.25 C-163.72257877 125.72835842 -161.76808805 122.23103443 -159.625 118.25 C-158.33514001 115.62007588 -157.05397159 112.98603709 -155.7734375 110.3515625 C-154.625 108.25 -154.625 108.25 -152.625 106.25 C-152.315625 105.280625 -152.00625 104.31125 -151.6875 103.3125 C-150.61333039 100.21636407 -149.8354243 99.4604243 -147.625 97.25 C-146.42450593 94.14992799 -146.42450593 94.14992799 -145.625 91.25 C-144.635 91.25 -143.645 91.25 -142.625 91.25 C-142.24988281 90.18265625 -142.24988281 90.18265625 -141.8671875 89.09375 C-140.49479367 85.95191758 -138.79572511 83.49821939 -136.75 80.75 C-135.73292969 79.37328125 -135.73292969 79.37328125 -134.6953125 77.96875 C-134.01210937 77.0715625 -133.32890625 76.174375 -132.625 75.25 C-131.92375 74.321875 -131.2225 73.39375 -130.5 72.4375 C-128.625 70.25 -128.625 70.25 -126.5 69.75 C-125.88125 69.585 -125.2625 69.42 -124.625 69.25 C-124.34914062 68.52425781 -124.07328125 67.79851562 -123.7890625 67.05078125 C-122.40021306 63.70915357 -120.55917494 61.60481832 -118.125 58.9375 C-117.3309375 58.05449219 -116.536875 57.17148438 -115.71875 56.26171875 C-113.625 54.25 -113.625 54.25 -111.625 54.25 C-111.295 53.26 -110.965 52.27 -110.625 51.25 C-109.635 51.25 -108.645 51.25 -107.625 51.25 C-107.625 50.59 -107.625 49.93 -107.625 49.25 C-106.965 49.25 -106.305 49.25 -105.625 49.25 C-105.295 48.26 -104.965 47.27 -104.625 46.25 C-102.55078125 44.56640625 -102.55078125 44.56640625 -99.9375 42.8125 C-98.58011719 41.89017578 -98.58011719 41.89017578 -97.1953125 40.94921875 C-95.24426521 39.65939265 -93.28109936 38.38787506 -91.3125 37.125 C-88.51705072 35.29952632 -88.51705072 35.29952632 -86.125 32.6875 C-83.16794981 29.80437607 -79.91092185 27.25 -75.625 27.25 C-75.315625 26.34507813 -75.315625 26.34507813 -75 25.421875 C-73.07077118 22.37457039 -70.95043258 21.79500019 -67.625 20.5 C-66.5525 20.07203125 -65.48 19.6440625 -64.375 19.203125 C-61.625 18.25 -61.625 18.25 -59.625 18.25 C-59.625 17.59 -59.625 16.93 -59.625 16.25 C-49.87575715 12.09848995 -40.06730181 8.2905856 -29.96557617 5.08447266 C-27.64242553 4.31146229 -27.64242553 4.31146229 -25.6237793 3.23730469 C-17.33421488 -0.82418168 -8.99422347 -0.19858106 0 0 Z " fill="#01699B" transform="translate(267.625,52.75)"/>
<path d="M0 0 C0 0.33 0 0.66 0 1 C-1.55847656 1.16435547 -1.55847656 1.16435547 -3.1484375 1.33203125 C-11.04169028 2.210639 -18.49391933 3.27786661 -26 6 C-27.09248047 6.39058594 -27.09248047 6.39058594 -28.20703125 6.7890625 C-31.0887883 7.84766713 -33.93151895 8.97042864 -36.75 10.1875 C-39 11 -39 11 -43 11 C-43 11.66 -43 12.32 -43 13 C-44.8253125 13.495 -44.8253125 13.495 -46.6875 14 C-62.60428487 19.30559496 -78.84573463 33.35995518 -87.10546875 47.953125 C-87.80536717 49.60813342 -88.40359209 51.30494594 -89 53 C-89.71775699 54.65084108 -90.44741292 56.29654829 -91.1875 57.9375 C-91.53167969 58.70964844 -91.87585938 59.48179687 -92.23046875 60.27734375 C-92.48441406 60.84582031 -92.73835938 61.41429687 -93 62 C-93.66 62 -94.32 62 -95 62 C-102.4283536 79.97208426 -105.18911196 98.70417451 -106 118 C-109.63 118 -113.26 118 -117 118 C-118.03269308 89.23758545 -107.60398291 57.88997259 -87.8046875 36.46484375 C-71.55806267 19.4915038 -52.4397568 7.79848564 -30 1 C-28.7625 0.60167969 -28.7625 0.60167969 -27.5 0.1953125 C-19.16293999 -2.11001091 -8.38723496 -2.03179142 0 0 Z " fill="#016398" transform="translate(331,202)"/>
<path d="M0 0 C1.12925395 3.40366684 0.83604375 5.7629635 0.125 9.25 C-1.12711907 16.76271445 -1.52490558 24.39848924 -2 32 C32.98 32 67.96 32 104 32 C104 32.33 104 32.66 104 33 C69.35 33 34.7 33 -1 33 C-0.96053146 60.62708517 -0.96053146 60.62708517 -0.90991211 88.25415039 C-0.90539551 93.64538574 -0.90539551 93.64538574 -0.90455627 96.18382263 C-0.90303903 97.92483273 -0.89956102 99.66584191 -0.89442444 101.40684509 C-0.78139552 141.80092605 -0.78139552 141.80092605 -14 160 C-14.52335937 160.75925781 -15.04671875 161.51851562 -15.5859375 162.30078125 C-16.05257812 162.86152344 -16.51921875 163.42226563 -17 164 C-17.66 164 -18.32 164 -19 164 C-19 164.66 -19 165.32 -19 166 C-19.66 166 -20.32 166 -21 166 C-21 166.66 -21 167.32 -21 168 C-21.66 168 -22.32 168 -23 168 C-23 168.66 -23 169.32 -23 170 C-36.89710374 180.06341995 -51.71903571 185.33697992 -69 184 C-75.51860501 182.87485103 -81.74761316 181.14314303 -88 179 C-88 178.67 -88 178.34 -88 178 C-83.10818299 177.71777979 -79.27022685 178.11690232 -74.5625 179.5 C-66.7580607 181.6339481 -59.01575967 181.25642833 -51 181 C-51 180.34 -51 179.68 -51 179 C-50.12859375 178.62230469 -49.2571875 178.24460937 -48.359375 177.85546875 C-39.01163324 173.535679 -32.21638864 168.29773279 -25 161 C-24.12988281 160.16275391 -24.12988281 160.16275391 -23.2421875 159.30859375 C-21.71831436 157.70325569 -20.90073775 156.00933806 -20 154 C-19.34 154 -18.68 154 -18 154 C-17.81824219 153.45472656 -17.63648438 152.90945313 -17.44921875 152.34765625 C-15.6328125 146.8984375 -13.81640625 141.44921875 -12 136 C-10.515 137.98 -10.515 137.98 -9 140 C-8.01 137.03 -8.01 137.03 -7 134 C-6.34 134 -5.68 134 -5 134 C-4.99761165 133.42299127 -4.99522329 132.84598253 -4.99276257 132.25148869 C-4.93331707 118.13367495 -4.85758221 104.01602447 -4.76428509 89.89839268 C-4.71954741 83.07086811 -4.6800838 76.24339314 -4.65356445 69.41577148 C-4.62791082 62.81501602 -4.58686098 56.21446683 -4.53681374 49.61384392 C-4.52025129 47.10757176 -4.50867142 44.60126109 -4.50238609 42.09494209 C-4.41057579 8.82115157 -4.41057579 8.82115157 0 0 Z " fill="#09F5FB" transform="translate(216,288)"/>
<path d="M0 0 C-0.9677016 7.77981152 -2.42506537 15.02841085 -5 22.44140625 C-7.48703628 31.29175802 -8.29739577 40.11280097 -8.30297852 49.27294922 C-8.31563751 50.85582985 -8.31563751 50.85582985 -8.32855225 52.47068787 C-8.35408273 55.91535963 -8.36641079 59.35994612 -8.37890625 62.8046875 C-8.39510342 65.21697651 -8.4122857 67.62925908 -8.43040466 70.04153442 C-8.47587808 76.36182681 -8.51079713 82.68212809 -8.54260254 89.00250244 C-8.59468257 99.13845893 -8.65973089 109.27432091 -8.73081779 119.41016006 C-8.75359037 122.94318037 -8.76989525 126.47618869 -8.78553772 130.00924683 C-8.79894549 132.1739719 -8.81256039 134.33869571 -8.82641602 136.50341797 C-8.82902939 137.48222427 -8.83164276 138.46103058 -8.83433533 139.46949768 C-8.86944221 144.09061352 -9.05134765 148.45415098 -10 153 C-10.66 153 -11.32 153 -12 153 C-12.12375 153.969375 -12.2475 154.93875 -12.375 155.9375 C-12.58125 156.948125 -12.7875 157.95875 -13 159 C-13.66 159.33 -14.32 159.66 -15 160 C-16.19452506 157.61094987 -16.11421041 156.18049569 -16.0957489 153.51477051 C-16.09159973 152.57040634 -16.08745056 151.62604218 -16.08317566 150.65306091 C-16.07337173 149.61319534 -16.06356781 148.57332977 -16.0534668 147.50195312 C-16.04707184 146.40891373 -16.04067688 145.31587433 -16.03408813 144.18971252 C-16.01119886 140.55349866 -15.98059648 136.91739991 -15.94921875 133.28125 C-15.92998194 130.74890272 -15.91092628 128.21655405 -15.89204407 125.6842041 C-15.85096712 120.35762917 -15.80580812 115.03110752 -15.75805664 109.70458984 C-15.70337606 103.59173295 -15.65918342 97.47886451 -15.62020558 91.36588907 C-15.58200742 85.45412987 -15.53332698 79.54249244 -15.48087502 73.63084412 C-15.46000198 71.13376648 -15.44205046 68.63666247 -15.4272213 66.13954163 C-15.13070222 18.48646597 -15.13070222 18.48646597 -5 2 C-2 0 -2 0 0 0 Z " fill="#06F5FC" transform="translate(221,269)"/>
<path d="M0 0 C0.33 0 0.66 0 1 0 C1.33 25.74 1.66 51.48 2 78 C2.66 72.06 3.32 66.12 4 60 C4.65802316 56.16029933 5.33742784 52.41511046 6.1875 48.625 C6.39745605 47.6760083 6.60741211 46.7270166 6.82373047 45.74926758 C8.39946576 38.93672932 10.35297072 32.29934019 12.625 25.6875 C12.9139917 24.83945801 13.2029834 23.99141602 13.50073242 23.11767578 C13.78150635 22.34020996 14.06228027 21.56274414 14.3515625 20.76171875 C14.59729004 20.08069092 14.84301758 19.39966309 15.09619141 18.69799805 C16 17 16 17 19 15 C20.35214207 11.96902553 20.35214207 11.96902553 21.5 8.5 C23.66666667 2.22222222 23.66666667 2.22222222 27 0 C28 1 28 1 28.08984375 2.94140625 C27.7017949 9.61783655 25.95399539 15.29570368 23.51220703 21.45678711 C17.48547361 36.75912357 12.26724567 53.26569456 11.625 69.75 C11.33182037 75.65023999 10.22038834 79.61890883 7.27734375 84.703125 C5.28995178 88.27678395 4.16049116 92.09395659 3 96 C2.01 95.67 1.02 95.34 0 95 C0 63.65 0 32.3 0 0 Z " fill="#07F7FB" transform="translate(91,170)"/>
<path d="M0 0 C1.60294922 0.01353516 1.60294922 0.01353516 3.23828125 0.02734375 C4.04652344 0.03894531 4.85476563 0.05054688 5.6875 0.0625 C5.6875 0.7225 5.6875 1.3825 5.6875 2.0625 C4.74132812 2.2584375 3.79515625 2.454375 2.8203125 2.65625 C-19.11003621 7.49659326 -37.75934101 18.02393895 -54.3125 33.0625 C-55.67761719 34.28453125 -55.67761719 34.28453125 -57.0703125 35.53125 C-62.79059482 40.91916118 -66.7568867 46.50893099 -70.62109375 53.27734375 C-72.05053195 55.63112997 -73.32483618 57.2139147 -75.3125 59.0625 C-75.6425 59.7225 -75.9725 60.3825 -76.3125 61.0625 C-78.16015625 61.6953125 -78.16015625 61.6953125 -80.375 62.1875 C-81.47521484 62.43886719 -81.47521484 62.43886719 -82.59765625 62.6953125 C-83.16355469 62.81648438 -83.72945312 62.93765625 -84.3125 63.0625 C-80.90746173 54.08558093 -75.96092254 46.36916306 -69.5 39.3125 C-68.77985718 38.5244397 -68.77985718 38.5244397 -68.04516602 37.72045898 C-66.84755142 36.45533128 -65.58479017 35.25250275 -64.3125 34.0625 C-63.6525 34.0625 -62.9925 34.0625 -62.3125 34.0625 C-62.085625 33.505625 -61.85875 32.94875 -61.625 32.375 C-58.50031242 26.86959807 -53.56036669 23.81194695 -48.375 20.46875 C-46.20503138 19.0828319 -46.20503138 19.0828319 -44.25 17 C-38.70806187 11.45806187 -31.52384002 8.75917757 -24.3125 6.0625 C-23.20648438 5.62550781 -22.10046875 5.18851563 -20.9609375 4.73828125 C-13.70012829 1.8782108 -7.85194643 -0.08628513 0 0 Z " fill="#0AF1FA" transform="translate(304.3125,199.9375)"/>
<path d="M0 0 C0.33 0 0.66 0 1 0 C0.99777939 1.29688751 0.99555878 2.59377502 0.99327087 3.92996216 C0.97292996 16.19886522 0.95797533 28.46776483 0.94818783 40.73668098 C0.94298671 47.04304842 0.9359398 53.34940216 0.92456055 59.65576172 C0.91363268 65.75065113 0.90770233 71.84552742 0.90512276 77.94042587 C0.90328626 80.25662314 0.89970029 82.57281975 0.89426994 84.88901138 C0.86783811 96.63856414 0.86838407 108.2943898 2 120 C2.07133652 120.8472464 2.14267303 121.6944928 2.21617126 122.56741333 C2.39567106 124.38820082 2.68203993 126.19822625 3 128 C3.66 128.33 4.32 128.66 5 129 C4.505 129.99 4.505 129.99 4 131 C4.66 131 5.32 131 6 131 C6 132.32 6 133.64 6 135 C6.99 135.33 7.98 135.66 9 136 C9.6875 138.0625 9.6875 138.0625 10 140 C10.66 140 11.32 140 12 140 C12.33 141.32 12.66 142.64 13 144 C13.66 144 14.32 144 15 144 C15.33 143.34 15.66 142.68 16 142 C17 143 18 144 19 145 C19.495 145.4125 19.99 145.825 20.5 146.25 C22.71231181 148.83103044 23.66730151 151.89037018 25 155 C26.53951047 156.88029239 26.53951047 156.88029239 28 158 C23.73439116 156.58581617 20.9940014 154.51748869 17.6875 151.5 C16.80449219 150.7059375 15.92148438 149.911875 15.01171875 149.09375 C13 147 13 147 13 145 C12.34 145 11.68 145 11 145 C-2.21627822 127.26386906 -3.31225303 107.92489312 -3.23046875 86.58203125 C-3.22927416 84.51323984 -3.22882438 82.44444787 -3.2290802 80.37565613 C-3.22752383 76.05972858 -3.21929811 71.74388496 -3.20581055 67.42797852 C-3.18879007 61.91385308 -3.1849977 56.3998193 -3.18575573 50.88567066 C-3.18548306 46.62101884 -3.17998676 42.35638678 -3.17275429 38.09174156 C-3.16958776 36.05889726 -3.16760496 34.02605074 -3.16686058 31.99320412 C-3.16467729 29.14883275 -3.15589149 26.3045559 -3.14526367 23.46020508 C-3.14571686 22.63244568 -3.14617004 21.80468628 -3.14663696 20.95184326 C-3.06734188 6.33917322 -3.06734188 6.33917322 0 0 Z " fill="#55CBE5" transform="translate(94,305)"/>
<path d="M0 0 C1.12925395 3.40366684 0.83604375 5.7629635 0.125 9.25 C-1.12711907 16.76271445 -1.52490558 24.39848924 -2 32 C32.98 32 67.96 32 104 32 C104 32.33 104 32.66 104 33 C69.35 33 34.7 33 -1 33 C-0.92104114 60.67215888 -0.92104114 60.67215888 -0.81982422 88.34423828 C-0.81079102 93.73999023 -0.81079102 93.73999023 -0.80911255 96.27926636 C-0.80607481 98.02366156 -0.79911161 99.768053 -0.78884888 101.51242065 C-0.63713659 128.69761495 -0.63713659 128.69761495 -5 137 C-4.93916222 121.90819888 -4.86145246 106.81654766 -4.76428509 91.72493839 C-4.71953963 84.71581093 -4.68007768 77.70673188 -4.65356445 70.69750977 C-4.6279186 63.92168184 -4.5868738 57.14608085 -4.53681374 50.37038994 C-4.52024619 47.79713099 -4.50866945 45.22383447 -4.50238609 42.65052986 C-4.41150266 8.82300533 -4.41150266 8.82300533 0 0 Z " fill="#57CBE4" transform="translate(216,288)"/>
<path d="M0 0 C0 0.33 0 0.66 0 1 C-0.68513672 1.08040527 -1.37027344 1.16081055 -2.07617188 1.24365234 C-5.21810402 1.61544411 -8.35903086 1.99516187 -11.5 2.375 C-12.57765625 2.50132813 -13.6553125 2.62765625 -14.765625 2.7578125 C-20.65195666 3.47565782 -26.30197583 4.36198643 -32 6 C-32.86979492 6.24234375 -33.73958984 6.4846875 -34.63574219 6.734375 C-41.78046893 8.7434539 -48.89535896 10.8538965 -56 13 C-56.71591309 13.21527344 -57.43182617 13.43054688 -58.16943359 13.65234375 C-72.18669605 17.96191821 -85.35329029 25.34313905 -97.5546875 33.39453125 C-101.62095707 36.06423859 -105.8152019 38.52180069 -110 41 C-110 39.68 -110 38.36 -110 37 C-110.391875 37.474375 -110.78375 37.94875 -111.1875 38.4375 C-113.40808374 40.35179633 -115.13375709 40.61266988 -118 41 C-114.42594532 37.15671332 -110.73185929 34.33503114 -106.1875 31.6875 C-105.54095459 31.30505127 -104.89440918 30.92260254 -104.22827148 30.52856445 C-97.6119969 26.67258024 -90.78678989 23.25543584 -83.89404297 19.92578125 C-81.8898202 18.94614568 -79.90496021 17.93203914 -77.91796875 16.91796875 C-72.15286258 14.03367183 -66.10508295 12.0355058 -60 10 C-59.28328125 9.75459473 -58.5665625 9.50918945 -57.828125 9.25634766 C-39.447004 3.02498918 -19.4987251 -1.27628019 0 0 Z " fill="#0EEDF7" transform="translate(298,53)"/>
<path d="M0 0 C0.33 0 0.66 0 1 0 C1.33 25.74 1.66 51.48 2 78 C2.66 72.06 3.32 66.12 4 60 C4.99 58.68 5.98 57.36 7 56 C7.35543427 53.66993089 7.6913753 51.33672984 8 49 C8.99 48.505 8.99 48.505 10 48 C10.99 48.33 11.98 48.66 13 49 C12.93941406 49.59949463 12.87882812 50.19898926 12.81640625 50.81665039 C12.54070422 53.56492245 12.27031457 56.31369302 12 59.0625 C11.90460938 60.00544922 11.80921875 60.94839844 11.7109375 61.91992188 C11.31785675 65.94899959 10.99631095 69.82556085 11.08203125 73.87890625 C10.99299979 77.26634135 10.35045878 78.96114303 8.6875 81.875 C6.21240267 86.45955528 4.48138383 91.01387882 3 96 C2.01 95.67 1.02 95.34 0 95 C0 63.65 0 32.3 0 0 Z " fill="#56FCFD" transform="translate(91,170)"/>
<path d="M0 0 C0 0.33 0 0.66 0 1 C-1.55847656 1.16435547 -1.55847656 1.16435547 -3.1484375 1.33203125 C-11.04169028 2.210639 -18.49391933 3.27786661 -26 6 C-26.72832031 6.26039063 -27.45664062 6.52078125 -28.20703125 6.7890625 C-31.0887883 7.84766713 -33.93151895 8.97042864 -36.75 10.1875 C-39 11 -39 11 -43 11 C-43 11.66 -43 12.32 -43 13 C-43.59167969 13.18175781 -44.18335938 13.36351562 -44.79296875 13.55078125 C-48.35210934 14.68297116 -51.5094496 15.69197998 -54.6875 17.6875 C-57 19 -57 19 -59.828125 18.8515625 C-63.78030969 19.03651696 -65.09173922 20.14046105 -68.0625 22.6875 C-69.35220703 23.77417969 -69.35220703 23.77417969 -70.66796875 24.8828125 C-72.50590331 26.55142311 -74.20497338 28.23219218 -75.875 30.0625 C-76.57625 30.701875 -77.2775 31.34125 -78 32 C-80.1328125 31.62109375 -80.1328125 31.62109375 -82 31 C-66.6078964 16.55762194 -50.03416879 7.27228353 -30 1 C-29.17113281 0.731875 -28.34226562 0.46375 -27.48828125 0.1875 C-19.145143 -2.10090363 -8.38996358 -2.03245242 0 0 Z " fill="#016CA1" transform="translate(331,202)"/>
<path d="M0 0 C2.3659472 -0.00389728 4.73189371 -0.00823404 7.09783936 -0.01298523 C12.02618696 -0.02039691 16.95446284 -0.02019155 21.8828125 -0.01489258 C28.16886206 -0.00908141 34.45461854 -0.02609357 40.74061966 -0.04923725 C45.61535327 -0.0640252 50.49001691 -0.0648398 55.36476898 -0.06172752 C57.68179661 -0.06223742 59.9988285 -0.06741211 62.31583405 -0.07753944 C85.45193086 -0.16633815 85.45193086 -0.16633815 96.171875 3.30078125 C96.171875 3.63078125 96.171875 3.96078125 96.171875 4.30078125 C95.13812744 4.23004395 94.10437988 4.15930664 93.03930664 4.08642578 C75.12530796 2.99486838 57.1882871 3.14842658 39.24926758 3.17041016 C34.59438799 3.17604463 29.93956643 3.17276905 25.28468895 3.16695786 C1.56360214 3.14206712 -22.12072674 3.48665679 -45.828125 4.30078125 C-33.93193185 -2.84304738 -13.33458596 -0.00924011 0 0 Z " fill="#76D5E4" transform="translate(234.828125,197.69921875)"/>
<path d="M0 0 C-15.54733666 9.66625157 -28.52337635 10.13971884 -46.52368164 10.18945312 C-48.14157822 10.1974163 -49.75947275 10.20580581 -51.37736511 10.21458435 C-54.8349808 10.23250105 -58.2925924 10.24756537 -61.75023079 10.26036072 C-67.22800202 10.28076448 -72.70572296 10.3083892 -78.18345642 10.33703613 C-90.79674347 10.40192206 -103.41006804 10.45754423 -116.02339935 10.51302338 C-127.59568147 10.56401442 -139.16794525 10.61700881 -150.74018186 10.67754889 C-156.17522954 10.7057147 -161.61027174 10.72937416 -167.04535496 10.74947357 C-170.43621456 10.76295581 -173.82704615 10.78036118 -177.21788216 10.79878426 C-178.77863855 10.80647265 -180.3394038 10.81257115 -181.90017319 10.81687737 C-190.64323479 10.84192211 -199.29698375 11.09900217 -208 12 C-202.84640139 9.2391436 -198.48034166 8.85001137 -192.68548584 8.84178162 C-191.57780015 8.83437465 -191.57780015 8.83437465 -190.44773698 8.82681805 C-187.97264721 8.8114567 -185.49758336 8.80308612 -183.02246094 8.79467773 C-181.24849215 8.78509814 -179.47452564 8.77508801 -177.70056152 8.76467896 C-172.8827848 8.73763266 -168.06499827 8.71662158 -163.24718761 8.69667697 C-158.212971 8.67481575 -153.17878456 8.64742772 -148.14459229 8.62062073 C-138.61076361 8.5706957 -129.07691818 8.52575615 -119.54305673 8.48259836 C-108.68946252 8.43322438 -97.83589859 8.37830684 -86.98233366 8.32291877 C-64.65491736 8.20910164 -42.32747201 8.10226199 -20 8 C-20 7.34 -20 6.68 -20 6 C-15.545 5.505 -15.545 5.505 -11 5 C-11 4.34 -11 3.68 -11 3 C-9.68 2.67 -8.36 2.34 -7 2 C-7 1.34 -7 0.68 -7 0 C-3.86650268 -1.04449911 -3.01031744 -0.93423645 0 0 Z " fill="#0AB1DB" transform="translate(404,163)"/>
<path d="M0 0 C0 0.33 0 0.66 0 1 C-0.68513672 1.08040527 -1.37027344 1.16081055 -2.07617188 1.24365234 C-5.21810402 1.61544411 -8.35903086 1.99516187 -11.5 2.375 C-13.11648438 2.56449219 -13.11648438 2.56449219 -14.765625 2.7578125 C-20.64886967 3.47528136 -26.30999889 4.33857849 -32 6 C-32.88574707 6.2582959 -33.77149414 6.5165918 -34.68408203 6.78271484 C-38.75809889 7.98482868 -42.82754122 9.20145194 -46.89257812 10.43359375 C-52.74432562 12.17158886 -58.49737495 13.56425209 -64.53393555 14.49023438 C-67.08117003 14.93987866 -67.08117003 14.93987866 -69.67114258 16.08007812 C-72.30347767 17.1198767 -73.39336263 16.96542125 -76 16 C-51.90188811 6.5088442 -26.24735366 -1.7180086 0 0 Z " fill="#15E6F4" transform="translate(298,53)"/>
<path d="M0 0 C-13.37743385 9.11758062 -28.36465632 13.18093349 -44.5078125 10.39453125 C-49.78411142 9.21066919 -54.88461018 7.75341231 -60 6 C-60 5.67 -60 5.34 -60 5 C-55.10818299 4.71777979 -51.27022685 5.11690232 -46.5625 6.5 C-38.7580607 8.6339481 -31.01575967 8.25642833 -23 8 C-23 7.34 -23 6.68 -23 6 C-22.25234375 5.89042969 -21.5046875 5.78085937 -20.734375 5.66796875 C-19.74953125 5.50941406 -18.7646875 5.35085938 -17.75 5.1875 C-16.28820312 4.96126953 -16.28820312 4.96126953 -14.796875 4.73046875 C-11.86583173 3.96495885 -10.22894502 3.02197156 -8 1 C-8 0.67 -8 0.34 -8 0 C-4.71303767 -0.79953138 -3.28976808 -1.09658936 0 0 Z " fill="#6BD7E6" transform="translate(188,461)"/>
<path d="M0 0 C0.66 0 1.32 0 2 0 C3.29243536 4.1196377 4.26252625 7.66831683 4 12 C4.66 12.33 5.32 12.66 6 13 C5.67 13.66 5.34 14.32 5 15 C5.66 15 6.32 15 7 15 C7 16.32 7 17.64 7 19 C7.99 19.33 8.98 19.66 10 20 C10.6875 22.0625 10.6875 22.0625 11 24 C11.66 24 12.32 24 13 24 C13.33 25.32 13.66 26.64 14 28 C14.66 28 15.32 28 16 28 C16.33 27.34 16.66 26.68 17 26 C18 27 19 28 20 29 C20.495 29.4125 20.99 29.825 21.5 30.25 C23.71231181 32.83103044 24.66730151 35.89037018 26 39 C27.53951047 40.88029239 27.53951047 40.88029239 29 42 C24.73439116 40.58581617 21.9940014 38.51748869 18.6875 35.5 C17.80449219 34.7059375 16.92148438 33.911875 16.01171875 33.09375 C14 31 14 31 14 29 C13.34 29 12.68 29 12 29 C5.79231053 20.66933448 0 10.60965468 0 0 Z " fill="#54CDE9" transform="translate(93,421)"/>
<path d="M0 0 C10.56 0 21.12 0 32 0 C32 0.33 32 0.66 32 1 C27.26856974 1.71769315 22.53631531 2.42958349 17.80322266 3.13623047 C16.19491318 3.37716965 14.58683558 3.61966222 12.97900391 3.86376953 C10.66108217 4.21540472 8.34236987 4.56135055 6.0234375 4.90625 C5.31069672 5.0156189 4.59795593 5.12498779 3.86361694 5.2376709 C-0.12704749 5.82492428 -3.96750648 6.11032814 -8 6 C-8 5.34 -8 4.68 -8 4 C-5.09399739 2.74335022 -3.20395416 2 0 2 C0 1.34 0 0.68 0 0 Z " fill="#046991" transform="translate(252,53)"/>
<path d="M0 0 C0.33 0.66 0.66 1.32 1 2 C-0.14118633 4.4755894 -1.34008891 6.85030542 -2.625 9.25 C-6.47389004 16.65067279 -9.42240486 24.06893802 -12 32 C-13.35949488 27.92151537 -12.14486103 24.82319055 -11.0625 20.8125 C-10.86720703 20.06291016 -10.67191406 19.31332031 -10.47070312 18.54101562 C-9.98785625 16.69206541 -9.49489367 14.84576224 -9 13 C-10.65 13.66 -12.3 14.32 -14 15 C-12.60718945 10.56833005 -10.60429961 7.93373224 -7 5 C-4.1875 4.6875 -4.1875 4.6875 -2 5 C-1.34 3.35 -0.68 1.7 0 0 Z " fill="#07D7EB" transform="translate(230,256)"/>
<path d="M0 0 C0.33 0 0.66 0 1 0 C1.5854382 9.39488925 -4.21823833 17.41767005 -9.703125 24.671875 C-10.34507812 25.32929688 -10.34507812 25.32929688 -11 26 C-11.66 26 -12.32 26 -13 26 C-13 26.66 -13 27.32 -13 28 C-13.66 28 -14.32 28 -15 28 C-15 28.66 -15 29.32 -15 30 C-15.66 30 -16.32 30 -17 30 C-17 30.66 -17 31.32 -17 32 C-18.65 32.66 -20.3 33.32 -22 34 C-22 32.35 -22 30.7 -22 29 C-20.35 29 -18.7 29 -17 29 C-16.67 28.01 -16.34 27.02 -16 26 C-15.34 26 -14.68 26 -14 26 C-13.75121094 25.45859375 -13.50242188 24.9171875 -13.24609375 24.359375 C-11.72980739 21.48841274 -9.91639626 18.91519165 -8.0625 16.25 C-4.90171784 11.5660873 -2.6908413 7.37090766 -1 2 C-0.67 1.34 -0.34 0.68 0 0 Z " fill="#5CD3E0" transform="translate(210,426)"/>
<path d="M0 0 C0.33 0 0.66 0 1 0 C4.86579693 16.71021901 -0.07805271 31.52345522 -8 46 C-8.33 46 -8.66 46 -9 46 C-9 44.02 -9 42.04 -9 40 C-8.01 39.505 -8.01 39.505 -7 39 C-6.835 38.01 -6.67 37.02 -6.5 36 C-6.335 35.01 -6.17 34.02 -6 33 C-5.01 32.505 -5.01 32.505 -4 32 C-3.34767859 29.6833206 -3.34767859 29.6833206 -2.9375 27 C-2.09433962 22.09433962 -2.09433962 22.09433962 -1 21 C-0.84313751 19.44051458 -0.74923361 17.87457332 -0.68359375 16.30859375 C-0.64169922 15.36435547 -0.59980469 14.42011719 -0.55664062 13.44726562 C-0.49766602 11.95743164 -0.49766602 11.95743164 -0.4375 10.4375 C-0.39431641 9.44041016 -0.35113281 8.44332031 -0.30664062 7.41601562 C-0.20019702 4.9441585 -0.09818072 2.4721969 0 0 Z " fill="#74D6EA" transform="translate(427,101)"/>
<path d="M0 0 C-0.33 0.66 -0.66 1.32 -1 2 C-3.2329003 2.50026728 -5.48930647 2.89591547 -7.75 3.25 C-15.72473636 4.57742801 -23.36139472 6.71730698 -31.07910156 9.10644531 C-32.36445801 9.49461426 -32.36445801 9.49461426 -33.67578125 9.890625 C-34.43802002 10.12813477 -35.20025879 10.36564453 -35.9855957 10.61035156 C-38 11 -38 11 -41 10 C-33.85007556 5.99794052 -27.0070648 3.6515151 -19 2 C-18.32469238 1.85788086 -17.64938477 1.71576172 -16.95361328 1.56933594 C-14.78391164 1.11692798 -12.61172039 0.68013564 -10.4375 0.25 C-9.40085205 0.03996338 -9.40085205 0.03996338 -8.34326172 -0.17431641 C-5.07596646 -0.7915351 -3.21075428 -1.07025143 0 0 Z " fill="#00A8E3" transform="translate(273,69)"/>
<path d="M0 0 C1.67542976 0.28604898 3.34385343 0.61781233 5 1 C2.91409088 5.82152763 -0.63773157 9.47201306 -4.00390625 13.44140625 C-6.15315692 15.90244819 -6.15315692 15.90244819 -7 19 C-7.66 19 -8.32 19 -9 19 C-9.4021875 20.3303125 -9.4021875 20.3303125 -9.8125 21.6875 C-10.91710819 24.76877548 -12.22849144 27.26221405 -14 30 C-15.6415049 26.7169902 -14.51888624 23.57454967 -14 20 C-13.01 20.33 -12.02 20.66 -11 21 C-11 19.02 -11 17.04 -11 15 C-10.01 15 -9.02 15 -8 15 C-8 14.34 -8 13.68 -8 13 C-7.34 13 -6.68 13 -6 13 C-5.67 12.01 -5.34 11.02 -5 10 C-4.34 10 -3.68 10 -3 10 C-2.86722656 9.36191406 -2.73445313 8.72382813 -2.59765625 8.06640625 C-2.42105469 7.24011719 -2.24445313 6.41382813 -2.0625 5.5625 C-1.88847656 4.73878906 -1.71445313 3.91507813 -1.53515625 3.06640625 C-1 1 -1 1 0 0 Z " fill="#5CCEE7" transform="translate(117,214)"/>
<path d="M0 0 C-1.625 5.75 -1.625 5.75 -5 8 C-5.66 8 -6.32 8 -7 8 C-9.33491639 8.32205743 -11.66842508 8.65458149 -14 9 C-14 9.99 -14 10.98 -14 12 C-15.0828125 12.061875 -15.0828125 12.061875 -16.1875 12.125 C-20.10660527 13.34427719 -21.49715654 15.83851352 -24 19 C-24.99 19.33 -25.98 19.66 -27 20 C-26.70192061 16.92908909 -26.01448769 16.01330703 -23.69921875 13.88671875 C-4.68206039 0 -4.68206039 0 0 0 Z M-7 8 C-6.34 8 -5.68 8 -5 8 C-5 8.66 -5 9.32 -5 10 C-5.66 10 -6.32 10 -7 10 C-7 9.34 -7 8.68 -7 8 Z " fill="#5ACEE6" transform="translate(162,211)"/>
<path d="M0 0 C0 0.33 0 0.66 0 1 C-1.02738281 1.12117187 -2.05476563 1.24234375 -3.11328125 1.3671875 C-10.35085979 2.23741286 -17.52045495 3.16954196 -24.66796875 4.6328125 C-27.14710371 5.02316206 -29.494418 5.06230577 -32 5 C-24.355909 -3.19501647 -10.20265657 -2.45656197 0 0 Z M-34 5 C-32 6 -32 6 -32 6 Z " fill="#016698" transform="translate(331,202)"/>
<path d="M0 0 C-1.23329415 3.69988244 -2.16633343 3.9185412 -5.5 5.75 C-11.86774519 9.42124651 -17.84840951 13.53647357 -22.8125 19 C-23.534375 19.66 -24.25625 20.32 -25 21 C-27.13671875 20.625 -27.13671875 20.625 -29 20 C-7.68480726 0 -7.68480726 0 0 0 Z " fill="#0180AE" transform="translate(278,213)"/>
<path d="M0 0 C1.2271875 0.00902344 2.454375 0.01804688 3.71875 0.02734375 C5.09546875 0.04474609 5.09546875 0.04474609 6.5 0.0625 C6.5 0.3925 6.5 0.7225 6.5 1.0625 C5.81486328 1.14290527 5.12972656 1.22331055 4.42382812 1.30615234 C1.28189598 1.67794411 -1.85903086 2.05766187 -5 2.4375 C-6.61648438 2.62699219 -6.61648438 2.62699219 -8.265625 2.8203125 C-15.2255978 3.66908967 -21.89856837 4.60660211 -28.4375 7.25 C-32.62954807 8.36217602 -36.26626012 7.758715 -40.5 7.0625 C-37.54418097 5.09195398 -36.07671987 4.62690619 -32.67578125 4.02734375 C-31.72896484 3.85783203 -30.78214844 3.68832031 -29.80664062 3.51367188 C-28.81857422 3.34416016 -27.83050781 3.17464844 -26.8125 3 C-25.84376953 2.82662109 -24.87503906 2.65324219 -23.87695312 2.47460938 C-15.88172202 1.06368624 -8.14689613 -0.07833554 0 0 Z " fill="#1AD1EA" transform="translate(291.5,52.9375)"/>
<path d="M0 0 C0.33 0 0.66 0 1 0 C0.88541307 1.43836751 0.75790884 2.87570966 0.625 4.3125 C0.55539063 5.11300781 0.48578125 5.91351563 0.4140625 6.73828125 C0 9 0 9 -2 12 C-2.66 12 -3.32 12 -4 12 C-4.19335938 12.55429687 -4.38671875 13.10859375 -4.5859375 13.6796875 C-4.84632813 14.40414063 -5.10671875 15.12859375 -5.375 15.875 C-5.63023437 16.59429687 -5.88546875 17.31359375 -6.1484375 18.0546875 C-7 20 -7 20 -9 22 C-9 20.02 -9 18.04 -9 16 C-9.66 16.99 -10.32 17.98 -11 19 C-11.66 18.67 -12.32 18.34 -13 18 C-11.68 14.37 -10.36 10.74 -9 7 C-8.01 8.32 -7.02 9.64 -6 11 C-5.731875 10.030625 -5.46375 9.06125 -5.1875 8.0625 C-4.5996875 6.5465625 -4.5996875 6.5465625 -4 5 C-3.01 4.67 -2.02 4.34 -1 4 C-0.26676204 1.98491642 -0.26676204 1.98491642 0 0 Z " fill="#26EDF8" transform="translate(213,417)"/>
<path d="M0 0 C1.32 0 2.64 0 4 0 C3 3 3 3 1.3984375 4.09765625 C-5.82557035 7.54230864 -11.97771422 9.28148371 -20 9 C-20 7.68 -20 6.36 -20 5 C-16.7 5.33 -13.4 5.66 -10 6 C-10 5.34 -10 4.68 -10 4 C-6.7 3.34 -3.4 2.68 0 2 C0 1.34 0 0.68 0 0 Z " fill="#3794C3" transform="translate(340,311)"/>
<path d="M0 0 C1.32 0 2.64 0 4 0 C3.17410472 4.03656316 1.55280977 7.76470819 0 11.5625 C-2.11235831 16.73865915 -2.11235831 16.73865915 -4 22 C-4.66 22 -5.32 22 -6 22 C-6.09706112 15.88514973 -5.77040851 10.06696699 -5 4 C-4.67 4 -4.34 4 -4 4 C-3.67 6.31 -3.34 8.62 -3 11 C-1.38935371 7.34920174 -0.55105909 3.9492568 0 0 Z " fill="#50E4E5" transform="translate(98,244)"/>
<path d="M0 0 C0.87840996 3.09720845 0.99435406 4.90645403 0 8 C-1.134375 8.28875 -2.26875 8.5775 -3.4375 8.875 C-4.613125 9.24625 -5.78875 9.6175 -7 10 C-7.33 10.66 -7.66 11.32 -8 12 C-9.70703125 12.88671875 -9.70703125 12.88671875 -11.8125 13.6875 C-12.49957031 13.95949219 -13.18664062 14.23148437 -13.89453125 14.51171875 C-16.29376496 15.06812731 -17.6894364 14.77364938 -20 14 C-18.96552734 13.48953125 -18.96552734 13.48953125 -17.91015625 12.96875 C-11.04614197 9.4284628 -5.53074049 5.38052285 0 0 Z " fill="#10ECF6" transform="translate(188,452)"/>
<path d="M0 0 C-1.65 0.66 -3.3 1.32 -5 2 C-1.7 2 1.6 2 5 2 C5 2.33 5 2.66 5 3 C4.20335937 3.18175781 3.40671875 3.36351562 2.5859375 3.55078125 C-4.13554156 5.13366368 -4.13554156 5.13366368 -10.5 7.75 C-13 9 -13 9 -15.375 8.6875 C-15.91125 8.460625 -16.4475 8.23375 -17 8 C-15.35 7.67 -13.7 7.34 -12 7 C-12.99 5.68 -13.98 4.36 -15 3 C-13.25531628 2.29911844 -11.50398839 1.61475991 -9.75 0.9375 C-8.77546875 0.55464844 -7.8009375 0.17179688 -6.796875 -0.22265625 C-3.95992605 -1.01113787 -2.70590448 -1.02437812 0 0 Z " fill="#0276A9" transform="translate(305,204)"/>
<path d="M0 0 C1.125 3.75 1.125 3.75 0 6 C-0.66 6 -1.32 6 -2 6 C-2.33 7.32 -2.66 8.64 -3 10 C-3.66 10 -4.32 10 -5 10 C-5.18175781 10.59167969 -5.36351563 11.18335937 -5.55078125 11.79296875 C-6.96765027 16.24702367 -8.50131077 20.0248126 -11 24 C-11.165 24.7425 -11.33 25.485 -11.5 26.25 C-11.665 26.8275 -11.83 27.405 -12 28 C-12.99 28.33 -13.98 28.66 -15 29 C-13.60344408 22.68640345 -11.26413907 17.26088736 -8.0625 11.6875 C-7.72669922 11.10145996 -7.39089844 10.51541992 -7.04492188 9.91162109 C-4.95408367 6.36589112 -2.64351696 3.15211307 0 0 Z " fill="#77BCD8" transform="translate(115,103)"/>
<path d="M0 0 C0.33 0 0.66 0 1 0 C3.71153514 11.64507501 4.24903709 23.42530538 1 35 C0.67 35 0.34 35 0 35 C0 23.45 0 11.9 0 0 Z " fill="#59ACCE" transform="translate(371,242)"/>
<path d="M0 0 C-8.85762386 6.03703973 -17.21643311 9.54112481 -28 10 C-27.34 9.34 -26.68 8.68 -26 8 C-25.01 8 -24.02 8 -23 8 C-23 7.34 -23 6.68 -23 6 C-22.25234375 5.89042969 -21.5046875 5.78085937 -20.734375 5.66796875 C-19.25710937 5.43013672 -19.25710937 5.43013672 -17.75 5.1875 C-16.28820312 4.96126953 -16.28820312 4.96126953 -14.796875 4.73046875 C-11.86583173 3.96495885 -10.22894502 3.02197156 -8 1 C-8 0.67 -8 0.34 -8 0 C-4.71303767 -0.79953138 -3.28976808 -1.09658936 0 0 Z " fill="#6BE7EB" transform="translate(188,461)"/>
<path d="M0 0 C0 2 0 4 0 6 C0.66 6.33 1.32 6.66 2 7 C-0.31 8.98 -2.62 10.96 -5 13 C-4.67 11.35 -4.34 9.7 -4 8 C-4.99 8.33 -5.98 8.66 -7 9 C-7 9.66 -7 10.32 -7 11 C-8.75 12.7265625 -8.75 12.7265625 -11 14.625 C-11.7425 15.25664063 -12.485 15.88828125 -13.25 16.5390625 C-13.8275 17.02117187 -14.405 17.50328125 -15 18 C-15.66 17.67 -16.32 17.34 -17 17 C-12.0252641 11.16526986 -6.8758329 5.92339116 -1 1 C-0.67 0.67 -0.34 0.34 0 0 Z " fill="#10F1FA" transform="translate(165,105)"/>
<path d="M0 0 C0.33 0 0.66 0 1 0 C1.53778759 6.02322095 0.81955774 9.02832735 -2.62109375 13.96875 C-4.77527997 17.14205549 -6.33616489 20.54908273 -8 24 C-9.32428491 20.97416298 -8.91373384 19.72814011 -7.890625 16.50390625 C-7.3552603 15.1853719 -6.80795077 13.87163678 -6.25 12.5625 C-5.98445313 11.90701172 -5.71890625 11.25152344 -5.4453125 10.57617188 C-3.9079988 6.85602197 -2.2439597 3.34659506 0 0 Z " fill="#74D3EA" transform="translate(106,264)"/>
<path d="M0 0 C0.66 0 1.32 0 2 0 C3.29243536 4.1196377 4.26252625 7.66831683 4 12 C4.66 12.33 5.32 12.66 6 13 C5.67 13.66 5.34 14.32 5 15 C5.66 15 6.32 15 7 15 C7 16.32 7 17.64 7 19 C7.99 19.33 8.98 19.66 10 20 C10.6875 22.0625 10.6875 22.0625 11 24 C11.66 24 12.32 24 13 24 C13.33 25.65 13.66 27.3 14 29 C13.34 29 12.68 29 12 29 C5.79231053 20.66933448 0 10.60965468 0 0 Z " fill="#65CFE5" transform="translate(93,421)"/>
<path d="M0 0 C0.99 0.33 1.98 0.66 3 1 C3.33 2.65 3.66 4.3 4 6 C0.35883227 9.33773709 -3.28607242 9.97864902 -8 11 C-7 9 -6 7 -5 5 C-4.34 5 -3.68 5 -3 5 C-2.690625 4.360625 -2.38125 3.72125 -2.0625 3.0625 C-1 1 -1 1 0 0 Z " fill="#2F95C8" transform="translate(124,92)"/>
<path d="M0 0 C5.68394256 5.18241821 10.84839582 11.21296218 12 19 C7.15599354 15.34756732 4.75600583 12.94340433 3 7 C1.0162233 5.71563266 1.0162233 5.71563266 -1 5 C-1.33 4.34 -1.66 3.68 -2 3 C-1.34 3 -0.68 3 0 3 C0 2.01 0 1.02 0 0 Z " fill="#46C1E1" transform="translate(412,72)"/>
<path d="M0 0 C0.33 0.66 0.66 1.32 1 2 C-1.08697431 6.5422382 -3.99400229 9.16241829 -8 12 C-8.99 11.67 -9.98 11.34 -11 11 C-11 11.66 -11 12.32 -11 13 C-11.66 12.67 -12.32 12.34 -13 12 C-8.87675353 7.74790208 -4.48717034 3.86364295 0 0 Z " fill="#49A2CA" transform="translate(138,79)"/>
<path d="M0 0 C-14.47572816 9 -14.47572816 9 -20 9 C-20 8.01 -20 7.02 -20 6 C-15.545 5.505 -15.545 5.505 -11 5 C-11 4.34 -11 3.68 -11 3 C-9.68 2.67 -8.36 2.34 -7 2 C-7 1.34 -7 0.68 -7 0 C-3.86650268 -1.04449911 -3.01031744 -0.93423645 0 0 Z " fill="#60CDE4" transform="translate(404,163)"/>
<path d="M0 0 C0 0.33 0 0.66 0 1 C-0.83809204 1.16604736 -0.83809204 1.16604736 -1.69311523 1.33544922 C-4.27478816 1.84757383 -6.85614423 2.36127923 -9.4375 2.875 C-10.31599609 3.04902344 -11.19449219 3.22304687 -12.09960938 3.40234375 C-17.75101906 4.5284549 -23.37901453 5.73056076 -29 7 C-21.38157925 -0.61842075 -10.0057923 -0.30474494 0 0 Z " fill="#79D7E9" transform="translate(201,175)"/>
<path d="M0 0 C0.66 0.33 1.32 0.66 2 1 C-3.75 6 -3.75 6 -6 6 C-6 6.66 -6 7.32 -6 8 C-6.66 8 -7.32 8 -8 8 C-8 8.66 -8 9.32 -8 10 C-8.66 10 -9.32 10 -10 10 C-10 10.66 -10 11.32 -10 12 C-10.66 12 -11.32 12 -12 12 C-12 12.66 -12 13.32 -12 14 C-12.66 14 -13.32 14 -14 14 C-13.42415568 11.61435923 -12.77772405 9.33317216 -12 7 C-10.68 7 -9.36 7 -8 7 C-8 6.01 -8 5.02 -8 4 C-6.68 4 -5.36 4 -4 4 C-4 3.34 -4 2.68 -4 2 C-2.125 0.9375 -2.125 0.9375 0 0 Z " fill="#4FC8E2" transform="translate(136,201)"/>
<path d="M0 0 C0 3 0 3 -1 5 C-1.66 5 -2.32 5 -3 5 C-3.2475 5.5775 -3.495 6.155 -3.75 6.75 C-5.18299988 9.32939979 -6.78424676 11.06121592 -9 13 C-9.66 13 -10.32 13 -11 13 C-11 13.66 -11 14.32 -11 15 C-11.66 14.67 -12.32 14.34 -13 14 C-13 12.35 -13 10.7 -13 9 C-11.02 9 -9.04 9 -7 9 C-6.5978125 7.7934375 -6.5978125 7.7934375 -6.1875 6.5625 C-5.795625 5.716875 -5.40375 4.87125 -5 4 C-4.01 3.67 -3.02 3.34 -2 3 C-2 2.34 -2 1.68 -2 1 C-1.34 0.67 -0.68 0.34 0 0 Z " fill="#6DD1E4" transform="translate(417,147)"/>
<path d="M0 0 C0 0.99 0 1.98 0 3 C-1.48345423 4.45048858 -2.97033247 5.89787575 -4.484375 7.31640625 C-6.06940196 9.07709342 -6.75881165 10.47735704 -7.5625 12.6875 C-9.1748443 16.40290208 -10.38831405 17.34057673 -14 19 C-11.59310544 11.2979374 -5.71296811 5.44092201 0 0 Z " fill="#028FBB" transform="translate(248,234)"/>
<path d="M0 0 C5.75 1.875 5.75 1.875 8 3 C8 3.66 8 4.32 8 5 C8.721875 5.20625 9.44375 5.4125 10.1875 5.625 C13.9255306 7.45248163 15.49246917 9.70438806 18 13 C15.525 12.505 15.525 12.505 13 12 C13 11.34 13 10.68 13 10 C12.01 10 11.02 10 10 10 C9.67 8.68 9.34 7.36 9 6 C8.01 6 7.02 6 6 6 C5.67 5.34 5.34 4.68 5 4 C4.01 3.7834375 4.01 3.7834375 3 3.5625 C2.34 3.376875 1.68 3.19125 1 3 C0.67 2.01 0.34 1.02 0 0 Z " fill="#5BA9CB" transform="translate(339,205)"/>
<path d="M0 0 C0.66 0.33 1.32 0.66 2 1 C-2.41009417 5.85110358 -7.58004353 9.348107 -13 13 C-13 12.01 -13 11.02 -13 10 C-10.86974265 8.14187717 -8.7760903 6.47106476 -6.5 4.8125 C-5.87996094 4.34908203 -5.25992188 3.88566406 -4.62109375 3.40820312 C-3.08707119 2.2635863 -1.54433057 1.13067059 0 0 Z M-16 13 C-15.34 13.33 -14.68 13.66 -14 14 C-15.485 15.485 -15.485 15.485 -17 17 C-17.99 16.67 -18.98 16.34 -20 16 C-18.68 15.01 -17.36 14.02 -16 13 Z " fill="#00C5E7" transform="translate(190,92)"/>
<path d="M0 0 C0 0.99 0 1.98 0 3 C-0.99 3.495 -0.99 3.495 -2 4 C-1.34 2.68 -0.68 1.36 0 0 Z M-2 4 C-3.51642877 7.59844449 -5.64973442 9.85713143 -8.4375 12.5625 C-9.21996094 13.32691406 -10.00242188 14.09132812 -10.80859375 14.87890625 C-11.53175781 15.57886719 -12.25492188 16.27882812 -13 17 C-14.00219057 17.99780462 -15.00321025 18.99680002 -16 20 C-14.54755344 15.48586212 -12.19375837 12.65514172 -9 9.1875 C-8.113125 8.21167969 -7.22625 7.23585937 -6.3125 6.23046875 C-4 4 -4 4 -2 4 Z " fill="#0376B3" transform="translate(260,230)"/>
<path d="M0 0 C0.66 0.33 1.32 0.66 2 1 C1.46515599 6.34844008 -0.46690767 10.35796103 -3 15 C-3.33 15 -3.66 15 -4 15 C-4.08131463 13.56344146 -4.13933559 12.1255517 -4.1875 10.6875 C-4.22230469 9.88699219 -4.25710938 9.08648437 -4.29296875 8.26171875 C-3.93167694 5.47254598 -3.04367233 4.83776076 -1 3 C-0.67 2.01 -0.34 1.02 0 0 Z " fill="#3096C2" transform="translate(369,276)"/>
<path d="M0 0 C0.66 0.33 1.32 0.66 2 1 C1.04956626 2.33897583 0.08940853 3.67105427 -0.875 5 C-1.40867188 5.7425 -1.94234375 6.485 -2.4921875 7.25 C-3.23855469 8.11625 -3.23855469 8.11625 -4 9 C-4.66 9 -5.32 9 -6 9 C-6.061875 9.61875 -6.12375 10.2375 -6.1875 10.875 C-7 13 -7 13 -9.5625 14.25 C-10.366875 14.4975 -11.17125 14.745 -12 15 C-10.38462556 11.10082032 -7.72075127 8.28706228 -4.875 5.25 C-4.40707031 4.74339844 -3.93914062 4.23679688 -3.45703125 3.71484375 C-2.30873459 2.47280859 -1.15491328 1.23588506 0 0 Z " fill="#74D5E9" transform="translate(130,232)"/>
<path d="M0 0 C1.0562208 3.16866239 0.954206 4.44758635 0.44140625 7.66796875 C0.30283203 8.56064453 0.16425781 9.45332031 0.02148438 10.37304688 C-0.12998047 11.30181641 -0.28144531 12.23058594 -0.4375 13.1875 C-0.58509766 14.12787109 -0.73269531 15.06824219 -0.88476562 16.03710938 C-1.25016389 18.35915639 -1.62214125 20.67995362 -2 23 C-2.33 23 -2.66 23 -3 23 C-3.08144943 20.29105233 -3.14070614 17.58458737 -3.1875 14.875 C-3.21263672 14.11445313 -3.23777344 13.35390625 -3.26367188 12.5703125 C-3.32797453 7.5975739 -2.65594442 4.36383518 0 0 Z " fill="#017498" transform="translate(96,221)"/>
<path d="M0 0 C-1.625 5.75 -1.625 5.75 -5 8 C-5 7.34 -5 6.68 -5 6 C-6.65 6.33 -8.3 6.66 -10 7 C-8.89184175 3.78634109 -8.01470446 3.0085776 -5 1.25 C-2 0 -2 0 0 0 Z M-7 8 C-6.34 8 -5.68 8 -5 8 C-5 8.66 -5 9.32 -5 10 C-5.66 10 -6.32 10 -7 10 C-7 9.34 -7 8.68 -7 8 Z " fill="#10B5DD" transform="translate(162,211)"/>
<path d="M0 0 C-7.3646737 3.74990266 -13.61643286 6.62100497 -22 6 C-18.71196932 3.80797954 -15.91745739 2.95741384 -12.125 1.875 C-10.91070312 1.52179687 -9.69640625 1.16859375 -8.4453125 0.8046875 C-5.4558555 0.10646965 -3.04397245 -0.1736106 0 0 Z " fill="#77BDD9" transform="translate(194,54)"/>
<path d="M0 0 C0.33 0 0.66 0 1 0 C1.13794954 7.06608191 0.74805717 13.97360585 0 21 C0.66 21 1.32 21 2 21 C1.625 22.9375 1.625 22.9375 1 25 C0.34 25.33 -0.32 25.66 -1 26 C-1.0292483 22.79168609 -1.04688189 19.58340693 -1.0625 16.375 C-1.07087891 15.47136719 -1.07925781 14.56773437 -1.08789062 13.63671875 C-1.10491895 8.97095711 -0.96829423 4.58986715 0 0 Z " fill="#17E8EF" transform="translate(95,230)"/>
<path d="M0 0 C0.33 0 0.66 0 1 0 C1.02689216 1.47906892 1.04634621 2.95827483 1.0625 4.4375 C1.07410156 5.26121094 1.08570312 6.08492187 1.09765625 6.93359375 C1 9 1 9 0 10 C-0.24179404 12.28808802 -0.38336599 14.57465815 -0.5234375 16.87109375 C-1 19 -1 19 -4 21 C-3.39700836 13.76410027 -1.8849413 7.00629124 0 0 Z " fill="#13E4F1" transform="translate(100,207)"/>
<path d="M0 0 C1.05916608 2.72173587 1.05253196 3.84927538 0.07421875 6.65625 C-0.61220703 8.06390625 -0.61220703 8.06390625 -1.3125 9.5 C-1.76238281 10.4384375 -2.21226563 11.376875 -2.67578125 12.34375 C-3.11277344 13.2203125 -3.54976563 14.096875 -4 15 C-4.38542969 15.7734375 -4.77085938 16.546875 -5.16796875 17.34375 C-5.44253906 17.8903125 -5.71710938 18.436875 -6 19 C-6.66 19 -7.32 19 -8 19 C-6.00386732 12.2813095 -3.2708579 6.19265192 0 0 Z " fill="#13DFEB" transform="translate(116,167)"/>
<path d="M0 0 C2.0430177 7.2988455 1.42514321 13.29242787 -2 20 C-2.33 20 -2.66 20 -3 20 C-3.40850553 12.91923749 -1.90420731 6.80074041 0 0 Z " fill="#60AED1" transform="translate(96,142)"/>
<path d="M0 0 C-5.93915684 2.50710309 -11.70277443 4.60061654 -18 6 C-18 5.34 -18 4.68 -18 4 C-16.35 3.67 -14.7 3.34 -13 3 C-13 2.34 -13 1.68 -13 1 C-11.58622218 0.63447197 -10.16879424 0.28304505 -8.75 -0.0625 C-7.96109375 -0.25972656 -7.1721875 -0.45695312 -6.359375 -0.66015625 C-3.89605178 -1.01497267 -2.34395868 -0.76877544 0 0 Z " fill="#10ECFC" transform="translate(259,60)"/>
<path d="M0 0 C-1.20888985 3.62666955 -1.96453165 3.80287066 -5.25 5.5 C-7.89480669 6.88757744 -10.41617513 8.2656437 -12.9375 9.875 C-13.618125 10.24625 -14.29875 10.6175 -15 11 C-15.66 10.67 -16.32 10.34 -17 10 C-5.46153846 0 -5.46153846 0 0 0 Z " fill="#028CB2" transform="translate(278,213)"/>
<path d="M0 0 C1.32 0 2.64 0 4 0 C3 3 3 3 1.29296875 4.203125 C0.59816406 4.54859375 -0.09664063 4.8940625 -0.8125 5.25 C-1.49957031 5.60578125 -2.18664062 5.9615625 -2.89453125 6.328125 C-5.35077442 7.11193544 -6.60042386 6.84119973 -9 6 C-8 4 -8 4 -5.625 2.875 C-3 2 -3 2 0 2 C0 1.34 0 0.68 0 0 Z " fill="#5CABCC" transform="translate(340,311)"/>
<path d="M0 0 C0.99 0.33 1.98 0.66 3 1 C2.01 1.495 2.01 1.495 1 2 C0.67 2.99 0.34 3.98 0 5 C-1.65848177 6.01351664 -3.32665961 7.01120795 -5 8 C-6.7041054 9.62836738 -8.38025441 11.28769752 -10 13 C-10 10 -10 10 -7.75 7.375 C-5.27118796 5.23420779 -4.16431511 4.35159057 -1 4 C-0.67 2.68 -0.34 1.36 0 0 Z " fill="#3AC3E2" transform="translate(124,241)"/>
<path d="M0 0 C0.33 0 0.66 0 1 0 C1.3482689 4.8757646 0.58621597 7.84358148 -2 12 C-4.1875 13.875 -4.1875 13.875 -6 15 C-4.36041242 9.76727367 -2.61047965 4.84803364 0 0 Z " fill="#41C7D8" transform="translate(210,426)"/>
<path d="M0 0 C0.763125 0.0825 1.52625 0.165 2.3125 0.25 C2.6425 1.24 2.9725 2.23 3.3125 3.25 C1.0025 4.57 -1.3075 5.89 -3.6875 7.25 C-4.3475 6.26 -5.0075 5.27 -5.6875 4.25 C-3.34903846 0.31153846 -3.34903846 0.31153846 0 0 Z " fill="#07F8FC" transform="translate(168.6875,104.75)"/>
<path d="M0 0 C0 3 0 3 -1.53125 4.82421875 C-2.1809375 5.43910156 -2.830625 6.05398438 -3.5 6.6875 C-4.1496875 7.31011719 -4.799375 7.93273437 -5.46875 8.57421875 C-5.9740625 9.04472656 -6.479375 9.51523437 -7 10 C-7.66 9.67 -8.32 9.34 -9 9 C-8.67 8.01 -8.34 7.02 -8 6 C-7.01 6 -6.02 6 -5 6 C-5 4.35 -5 2.7 -5 1 C-3.35 0.67 -1.7 0.34 0 0 Z " fill="#68B4D3" transform="translate(359,298)"/>
<path d="M0 0 C1.32 0 2.64 0 4 0 C3.32116957 3.11547441 2.25893098 5.85137721 0.9375 8.75 C0.39416016 9.94882813 0.39416016 9.94882813 -0.16015625 11.171875 C-0.43730469 11.77515625 -0.71445313 12.3784375 -1 13 C-2.12758089 9.61725734 -1.81750262 8.23221777 -1.0625 4.8125 C-0.86785156 3.91144531 -0.67320313 3.01039063 -0.47265625 2.08203125 C-0.23869141 1.05142578 -0.23869141 1.05142578 0 0 Z " fill="#74F2F2" transform="translate(98,244)"/>
<path d="M0 0 C1.65 0.33 3.3 0.66 5 1 C3.50902342 4.7952131 1.24299151 6.61042731 -2 9 C-2 5.61976483 -1.12544378 3.16531063 0 0 Z " fill="#41C2E4" transform="translate(117,214)"/>
<path d="M0 0 C-1.49879966 2.99759932 -3.80308864 3.30788674 -6.85546875 4.40234375 C-9.6234943 5.17376071 -12.1459642 5.21405269 -15 5 C-11.55014028 1.85012808 -4.53875449 -2.26937725 0 0 Z " fill="#61D0E6" transform="translate(177,206)"/>
<path d="M0 0 C5.67853635 1.41963409 9.53174216 4.39363961 14 8 C13.01 8.495 13.01 8.495 12 9 C11.01 8.67 10.02 8.34 9 8 C8.67 7.34 8.34 6.68 8 6 C5.65961814 4.86897474 5.65961814 4.86897474 2.9375 3.875 C2.01839844 3.52179687 1.09929687 3.16859375 0.15234375 2.8046875 C-0.55792969 2.53914063 -1.26820313 2.27359375 -2 2 C-1.34 1.34 -0.68 0.68 0 0 Z " fill="#61D1E4" transform="translate(393,58)"/>
<path d="M0 0 C-0.33 0.99 -0.66 1.98 -1 3 C-2.65 2.67 -4.3 2.34 -6 2 C-6 2.66 -6 3.32 -6 4 C-7.65 3.67 -9.3 3.34 -11 3 C-9 0 -9 0 -7.1875 -0.75 C-4.59271 -1.04654743 -2.52136205 -0.63034051 0 0 Z " fill="#016095" transform="translate(243,59)"/>
<path d="M0 0 C0.33 0 0.66 0 1 0 C1.36666667 7.33333333 1.36666667 7.33333333 -0.375 10.5 C-2 12 -2 12 -4 12 C-3.53439347 7.25081338 -2.83067342 3.89217595 0 0 Z " fill="#46C4E2" transform="translate(106,264)"/>
<path d="M0 0 C-3.46044155 3.02788635 -7.52249221 4.98556464 -12 6 C-14.25 5.578125 -14.25 5.578125 -16 5 C-14.41925436 4.18247697 -12.83528777 3.37118003 -11.25 2.5625 C-10.36828125 2.11003906 -9.4865625 1.65757813 -8.578125 1.19140625 C-2.88188976 -1.44094488 -2.88188976 -1.44094488 0 0 Z " fill="#00C6E6" transform="translate(234,70)"/>
<path d="M0 0 C-6.36363636 5 -6.36363636 5 -11 5 C-11 3.68 -11 2.36 -11 1 C-7.26562152 0.12132271 -3.83225427 -0.08912219 0 0 Z " fill="#65CEE4" transform="translate(167,184)"/>
<path d="M0 0 C-1.23944276 0.86941494 -2.49207059 1.72005457 -3.75 2.5625 C-4.44609375 3.03816406 -5.1421875 3.51382812 -5.859375 4.00390625 C-8 5 -8 5 -10.265625 4.65234375 C-10.83796875 4.43707031 -11.4103125 4.22179687 -12 4 C-11.34 3.525625 -10.68 3.05125 -10 2.5625 C-9.34 2.046875 -8.68 1.53125 -8 1 C-8 0.67 -8 0.34 -8 0 C-4.71303767 -0.79953138 -3.28976808 -1.09658936 0 0 Z " fill="#59DDE2" transform="translate(188,461)"/>
<path d="M0 0 C0.66 0.66 1.32 1.32 2 2 C1.70765453 6.38518205 0.52691125 9.42020907 -2 13 C-2.33 13 -2.66 13 -3 13 C-3 11.02 -3 9.04 -3 7 C-2.34 6.67 -1.68 6.34 -1 6 C-0.34227572 2.97065509 -0.34227572 2.97065509 0 0 Z " fill="#45C5E1" transform="translate(421,134)"/>
<path d="M0 0 C0.66 0 1.32 0 2 0 C2.33 1.98 2.66 3.96 3 6 C0.525 7.485 0.525 7.485 -2 9 C-1.34 6.03 -0.68 3.06 0 0 Z " fill="#097CB4" transform="translate(98,140)"/>
<path d="M0 0 C0.33 0 0.66 0 1 0 C1 1.98 1 3.96 1 6 C0.195625 6.28875 -0.60875 6.5775 -1.4375 6.875 C-4.1326468 7.73262568 -4.1326468 7.73262568 -5 10 C-4.38531118 6.00452264 -2.34540624 3.22493358 0 0 Z " fill="#6AD2E7" transform="translate(112,254)"/>
<path d="M0 0 C0.66 0.99 1.32 1.98 2 3 C0.8553125 3.8353125 0.8553125 3.8353125 -0.3125 4.6875 C-2.96795507 6.97242645 -4.2579107 9.0135612 -6 12 C-6.66 12 -7.32 12 -8 12 C-6.59023295 8.96147295 -4.91129772 6.4060405 -2.875 3.75 C-2.06675781 2.69039062 -2.06675781 2.69039062 -1.2421875 1.609375 C-0.83226562 1.07828125 -0.42234375 0.5471875 0 0 Z " fill="#15E4F3" transform="translate(140,131)"/>
<path d="M0 0 C0.66 0.33 1.32 0.66 2 1 C0.9375 3.4375 0.9375 3.4375 -1 6 C-4.6875 6.8125 -4.6875 6.8125 -8 7 C-5.42215154 4.35247996 -3.08351902 2.05567935 0 0 Z " fill="#63B2D3" transform="translate(150,70)"/>
<path d="M0 0 C1.69752187 0.25245197 3.38471545 0.57645775 5.0625 0.9375 C5.98160156 1.13214844 6.90070313 1.32679688 7.84765625 1.52734375 C8.91306641 1.76130859 8.91306641 1.76130859 10 2 C6.91111478 4.05925681 6.29064073 4.2390374 2.8125 4.125 C0.9253125 4.063125 0.9253125 4.063125 -1 4 C-1 1 -1 1 0 0 Z " fill="#2CC0E6" transform="translate(162,180)"/>
<path d="M0 0 C1.22589844 0.15275391 1.22589844 0.15275391 2.4765625 0.30859375 C3.41628906 0.43427734 3.41628906 0.43427734 4.375 0.5625 C0.93049263 2.85883824 -1.56312283 3.10266485 -5.625 3.5625 C-5.955 2.5725 -6.285 1.5825 -6.625 0.5625 C-4.10446405 -0.69776798 -2.7707902 -0.35624445 0 0 Z " fill="#11B3DC" transform="translate(172.625,178.4375)"/>
<path d="M0 0 C0.66 0 1.32 0 2 0 C2 3 2 3 0.25 4.82421875 C-0.4925 5.43910156 -1.235 6.05398437 -2 6.6875 C-2.7425 7.31011719 -3.485 7.93273437 -4.25 8.57421875 C-4.8275 9.04472656 -5.405 9.51523438 -6 10 C-6.66 9.67 -7.32 9.34 -8 9 C-6.71520959 7.49410612 -5.42195918 5.99542625 -4.125 4.5 C-3.04605469 3.24703125 -3.04605469 3.24703125 -1.9453125 1.96875 C-1.30335938 1.3190625 -0.66140625 0.669375 0 0 Z " fill="#15E2EE" transform="translate(156,113)"/>
<path d="M0 0 C1.65 0 3.3 0 5 0 C5.33 0.99 5.66 1.98 6 3 C5.34 3 4.68 3 4 3 C4.33 4.65 4.66 6.3 5 8 C4.34 8 3.68 8 3 8 C3 6.68 3 5.36 3 4 C2.34 4 1.68 4 1 4 C0.67 2.68 0.34 1.36 0 0 Z " fill="#0CB1E1" transform="translate(97,432)"/>
<path d="M0 0 C0.66 0.33 1.32 0.66 2 1 C-3.75 6 -3.75 6 -6 6 C-6 6.66 -6 7.32 -6 8 C-6.66 8 -7.32 8 -8 8 C-8 6.68 -8 5.36 -8 4 C-6.68 4 -5.36 4 -4 4 C-4 3.34 -4 2.68 -4 2 C-2.125 0.9375 -2.125 0.9375 0 0 Z " fill="#74D7EA" transform="translate(136,201)"/>
<path d="M0 0 C1.125 3.75 1.125 3.75 0 6 C-0.66 6 -1.32 6 -2 6 C-2.33 7.32 -2.66 8.64 -3 10 C-3.66 9.67 -4.32 9.34 -5 9 C-2.25 2.25 -2.25 2.25 0 0 Z " fill="#60A9C8" transform="translate(115,103)"/>
<path d="M0 0 C1.32 0.99 2.64 1.98 4 3 C3.67 4.32 3.34 5.64 3 7 C-0.875 5.25 -0.875 5.25 -2 3 C-1.34 3 -0.68 3 0 3 C0 2.01 0 1.02 0 0 Z " fill="#32C4E5" transform="translate(412,72)"/>
<path d="M0 0 C0.99 0.33 1.98 0.66 3 1 C1.52307692 5.67692308 1.52307692 5.67692308 -1.125 7.3125 C-2.053125 7.6528125 -2.053125 7.6528125 -3 8 C-3.33 6.68 -3.66 5.36 -4 4 C-2.68 3.34 -1.36 2.68 0 2 C0 1.34 0 0.68 0 0 Z " fill="#3897C7" transform="translate(348,304)"/>
<path d="M0 0 C0.66 0.33 1.32 0.66 2 1 C0.02 1.99 0.02 1.99 -2 3 C-1.34 2.01 -0.68 1.02 0 0 Z M-6 3 C-3.8125 3.3125 -3.8125 3.3125 -2 4 C-3.25 5.5625 -3.25 5.5625 -5 7 C-7.1875 6.6875 -7.1875 6.6875 -9 6 C-7.75 4.4375 -7.75 4.4375 -6 3 Z " fill="#007AA4" transform="translate(265,221)"/>
<path d="M0 0 C1.98 0 3.96 0 6 0 C5.34 1.32 4.68 2.64 4 4 C3.34 4 2.68 4 2 4 C2 4.66 2 5.32 2 6 C1.34 5.67 0.68 5.34 0 5 C0 3.35 0 1.7 0 0 Z " fill="#4AC9E3" transform="translate(404,156)"/>
<path d="M0 0 C0 3.58912412 -0.66436554 4.10857029 -3 6.6875 C-3.556875 7.31011719 -4.11375 7.93273437 -4.6875 8.57421875 C-5.120625 9.04472656 -5.55375 9.51523438 -6 10 C-6.99 9.67 -7.98 9.34 -9 9 C-8.01 8.67 -7.02 8.34 -6 8 C-5.31513275 6.67592331 -4.65129797 5.34090759 -4 4 C-2.70529025 2.62913085 -1.37849103 1.28659163 0 0 Z " fill="#00C8E8" transform="translate(166,112)"/>
<path d="M0 0 C-2.85021875 2.32240046 -5.46355091 3.93906527 -9 5 C-11.15625 4.546875 -11.15625 4.546875 -13 4 C-4.738041 -0.59225513 -4.738041 -0.59225513 0 0 Z " fill="#08F4FD" transform="translate(236,67)"/>
<path d="M0 0 C2.625 0.9375 2.625 0.9375 5 2 C4.01 3.485 4.01 3.485 3 5 C1.0625 4.6875 1.0625 4.6875 -1 4 C-1.33 3.01 -1.66 2.02 -2 1 C-1.34 0.67 -0.68 0.34 0 0 Z " fill="#2EC1EF" transform="translate(134,229)"/>
<path d="M0 0 C-5.75 4 -5.75 4 -8 4 C-8 2.68 -8 1.36 -8 0 C-4.94736336 -0.98120464 -3.05263664 -0.98120464 0 0 Z " fill="#60CEE5" transform="translate(151,193)"/>
<path d="M0 0 C0.66 0.66 1.32 1.32 2 2 C1.625 5.125 1.625 5.125 1 8 C0.34 8 -0.32 8 -1 8 C-1.33 8.66 -1.66 9.32 -2 10 C-1.54177532 6.53058454 -1.10868317 3.32604951 0 0 Z " fill="#5CADCE" transform="translate(99,132)"/>
<path d="M0 0 C0.66 0.33 1.32 0.66 2 1 C1.67 1.99 1.34 2.98 1 4 C-1.64 4.33 -4.28 4.66 -7 5 C-4.88437775 2.67281553 -2.94982021 1.14186589 0 0 Z " fill="#66B2D0" transform="translate(159,65)"/>
<path d="M0 0 C-0.99 1.485 -0.99 1.485 -2 3 C-5.125 3.1875 -5.125 3.1875 -8 3 C-8 2.34 -8 1.68 -8 1 C-3.375 -1.125 -3.375 -1.125 0 0 Z " fill="#025F96" transform="translate(252,56)"/>
<path d="M0 0 C2.1875 0.3125 2.1875 0.3125 4 1 C1.03 3.475 1.03 3.475 -2 6 C-2.33 5.01 -2.66 4.02 -3 3 C-1.75 1.4375 -1.75 1.4375 0 0 Z " fill="#4DC5DB" transform="translate(138,225)"/>
<path d="M0 0 C-1.4638611 4.39158329 -3.97831338 4.87947433 -8 7 C-7.67 5.68 -7.34 4.36 -7 3 C-6.01 3 -5.02 3 -4 3 C-4 2.34 -4 1.68 -4 1 C-2 0 -2 0 0 0 Z " fill="#00C7E6" transform="translate(259,217)"/>
<path d="M0 0 C-1.14453125 1.51953125 -1.14453125 1.51953125 -3 3 C-5.69921875 3.07421875 -5.69921875 3.07421875 -8.6875 2.6875 C-10.17830078 2.50767578 -10.17830078 2.50767578 -11.69921875 2.32421875 C-12.45847656 2.21722656 -13.21773437 2.11023438 -14 2 C-14 1.67 -14 1.34 -14 1 C-9.27616037 0.34843591 -4.78025483 -0.11950637 0 0 Z " fill="#0FB2DB" transform="translate(203,201)"/>
<path d="M0 0 C0 0.99 0 1.98 0 3 C-0.66 3 -1.32 3 -2 3 C-2.33 4.32 -2.66 5.64 -3 7 C-3.99 6.67 -4.98 6.34 -6 6 C-6 5.01 -6 4.02 -6 3 C-4.02 2.01 -2.04 1.02 0 0 Z " fill="#10E6F2" transform="translate(209,75)"/>
<path d="M0 0 C0.99 0 1.98 0 3 0 C1.25 5.75 1.25 5.75 -1 8 C-1.125 2.25 -1.125 2.25 0 0 Z " fill="#53A3CA" transform="translate(366,283)"/>
<path d="M0 0 C-0.5625 1.9375 -0.5625 1.9375 -2 4 C-5.625 4.75 -5.625 4.75 -9 5 C-6.45523312 2.20075644 -3.92372883 0 0 0 Z " fill="#80DBEC" transform="translate(162,211)"/>
<path d="M0 0 C0 0.66 0 1.32 0 2 C-2.90600261 3.25664978 -4.79604584 4 -8 4 C-8 3.01 -8 2.02 -8 1 C-5.23735711 0.40267181 -2.83967231 0 0 0 Z " fill="#4EC9E0" transform="translate(392,168)"/>
<path d="M0 0 C0.33 1.32 0.66 2.64 1 4 C0.01 5.485 0.01 5.485 -1 7 C-1.66 7 -2.32 7 -3 7 C-3 7.66 -3 8.32 -3 9 C-3.66 8.67 -4.32 8.34 -5 8 C-3.35 5.36 -1.7 2.72 0 0 Z " fill="#15E4F0" transform="translate(127,149)"/>
<path d="M0 0 C0.33 0.66 0.66 1.32 1 2 C0.67 2.99 0.34 3.98 0 5 C-2.0625 5.6875 -2.0625 5.6875 -4 6 C-4 6.66 -4 7.32 -4 8 C-4.66 7.67 -5.32 7.34 -6 7 C-4.02 4.69 -2.04 2.38 0 0 Z " fill="#13DFED" transform="translate(147,123)"/>
<path d="M0 0 C1.65 0 3.3 0 5 0 C5 0.99 5 1.98 5 3 C3.35 3.66 1.7 4.32 0 5 C0 3.35 0 1.7 0 0 Z " fill="#57DFE8" transform="translate(188,455)"/>
<path d="M0 0 C0.88492145 2.47778006 1.11637742 3.66056586 0.25 6.1875 C-1 8 -1 8 -4 9 C-2.80100302 5.9168649 -1.52299523 2.93720508 0 0 Z " fill="#0073A3" transform="translate(230,258)"/>
<path d="M0 0 C0.66 0.33 1.32 0.66 2 1 C1.6875 2.9375 1.6875 2.9375 1 5 C0.01 5.33 -0.98 5.66 -2 6 C-2 2 -2 2 0 0 Z " fill="#10B2D9" transform="translate(132,232)"/>
<path d="M0 0 C1.32 0.33 2.64 0.66 4 1 C4 1.66 4 2.32 4 3 C1.69 3.33 -0.62 3.66 -3 4 C-2.01 2.68 -1.02 1.36 0 0 Z " fill="#08FAFD" transform="translate(192,86)"/>
<path d="M0 0 C3.3 0 6.6 0 10 0 C10 0.33 10 0.66 10 1 C6.37 1.66 2.74 2.32 -1 3 C-0.67 2.01 -0.34 1.02 0 0 Z " fill="#18E0F8" transform="translate(264,56)"/>
</svg>
